M48
;DRILL file {KiCad 4.0.2-stable} date 4/28/2016 10:57:54 AM
;FORMAT={2:4/ absolute / inch / suppress leading zeros}
FMAT,2
INCH,TZ
T1C0.012
T2C0.025
T3C0.031
T4C0.040
T5C0.040
T6C0.059
%
G90
G05
M72
T1
X49000Y-42500
X49400Y-42000
X49400Y-43800
X50100Y-43100
X50500Y-43500
X50700Y-39100
X51100Y-43800
X52300Y-39100
X53800Y-41400
X54200Y-41800
X54600Y-38400
X57700Y-40800
X59100Y-40800
T2
X48000Y-47100
X48800Y-45500
X50000Y-44900
X50500Y-38600
X52050Y-36550
X52650Y-35900
X55300Y-36200
X56800Y-44350
X56800Y-45700
X56950Y-40150
X56950Y-41950
X57100Y-39100
X57700Y-39600
X57700Y-40300
X58000Y-38150
X58000Y-38850
X58100Y-47000
X58400Y-42300
X58500Y-37100
X58500Y-37850
T3
X58463Y-36000
X59250Y-36000
X60037Y-36000
T4
X52000Y-42750
X52000Y-43750
X52000Y-44750
X52000Y-45750
X52000Y-46750
X53000Y-42750
X53000Y-43750
X53000Y-44750
X53000Y-45750
X53000Y-46750
X55250Y-37500
X55250Y-38500
X55250Y-39500
X55250Y-40500
X55250Y-41500
X56250Y-37500
X56250Y-38500
X56250Y-39500
X56250Y-40500
X56250Y-41500
X58700Y-44250
X58700Y-45250
X58700Y-46250
X59700Y-44250
X59700Y-45250
X59700Y-46250
T5
X46500Y-37500
X46500Y-38500
X46500Y-39500
X46500Y-40500
X46500Y-41500
X46500Y-42500
X46500Y-43500
X46500Y-44500
X46500Y-45500
X46500Y-46500
X47500Y-37500
X47500Y-38500
X47500Y-39500
X47500Y-40500
X47500Y-41500
X47500Y-42500
X47500Y-43500
X47500Y-44500
X47500Y-45500
X47500Y-46500
T6
X57636Y-36000
X60864Y-36000
T0
M30
