G04 #@! TF.FileFunction,Copper,L2,Bot,Signal*
%FSLAX46Y46*%
G04 Gerber Fmt 4.6, Leading zero omitted, Abs format (unit mm)*
G04 Created by KiCad (PCBNEW 4.0.2-stable) date 4/28/2016 10:57:31 AM*
%MOMM*%
G01*
G04 APERTURE LIST*
%ADD10C,0.150000*%
%ADD11R,1.750000X1.750000*%
%ADD12C,1.750000*%
%ADD13R,1.727200X1.727200*%
%ADD14O,1.727200X1.727200*%
%ADD15C,1.524000*%
%ADD16C,0.434000*%
%ADD17C,0.889000*%
%ADD18C,0.203200*%
%ADD19C,0.254000*%
G04 APERTURE END LIST*
D10*
D11*
X120650000Y-95250000D03*
D12*
X118110000Y-95250000D03*
X120650000Y-97790000D03*
X118110000Y-97790000D03*
X120650000Y-100330000D03*
X118110000Y-100330000D03*
X120650000Y-102870000D03*
X118110000Y-102870000D03*
X120650000Y-105410000D03*
X118110000Y-105410000D03*
X120650000Y-107950000D03*
X118110000Y-107950000D03*
X120650000Y-110490000D03*
X118110000Y-110490000D03*
X120650000Y-113030000D03*
X118110000Y-113030000D03*
X120650000Y-115570000D03*
X118110000Y-115570000D03*
X120650000Y-118110000D03*
X118110000Y-118110000D03*
D13*
X140335000Y-95250000D03*
D14*
X142875000Y-95250000D03*
X140335000Y-97790000D03*
X142875000Y-97790000D03*
X140335000Y-100330000D03*
X142875000Y-100330000D03*
X140335000Y-102870000D03*
X142875000Y-102870000D03*
X140335000Y-105410000D03*
X142875000Y-105410000D03*
D13*
X134620000Y-118745000D03*
D14*
X132080000Y-118745000D03*
X134620000Y-116205000D03*
X132080000Y-116205000D03*
X134620000Y-113665000D03*
X132080000Y-113665000D03*
X134620000Y-111125000D03*
X132080000Y-111125000D03*
X134620000Y-108585000D03*
X132080000Y-108585000D03*
D13*
X151638000Y-117475000D03*
D14*
X149098000Y-117475000D03*
X151638000Y-114935000D03*
X149098000Y-114935000D03*
X151638000Y-112395000D03*
X149098000Y-112395000D03*
D15*
X152495000Y-91440000D03*
X150495000Y-91440000D03*
X148495000Y-91440000D03*
D16*
X137668000Y-106172000D03*
X136652000Y-105156000D03*
X124460000Y-107950000D03*
X125476000Y-106680000D03*
X129794000Y-111252000D03*
X125476000Y-111252000D03*
X138684000Y-97536000D03*
X127254000Y-109474000D03*
X128270000Y-110490000D03*
X128778000Y-99314000D03*
X132842000Y-99314000D03*
X146558000Y-103632000D03*
X150114000Y-103632000D03*
D17*
X147574000Y-119380000D03*
X133731000Y-91186000D03*
X132207000Y-92837000D03*
X144653000Y-101981000D03*
X144653000Y-106553000D03*
X144272000Y-112649000D03*
X144272000Y-116078000D03*
X146558000Y-100584000D03*
X145034000Y-99314000D03*
X147320000Y-98679000D03*
X147320000Y-96901000D03*
X148590000Y-94234000D03*
X148590000Y-96139000D03*
X140462000Y-91948000D03*
X148336000Y-107442000D03*
X146558000Y-102362000D03*
X127000000Y-114046000D03*
X121920000Y-119634000D03*
X123952000Y-115570000D03*
X128270000Y-98044000D03*
D18*
X136652000Y-105156000D02*
X137668000Y-106172000D01*
X124460000Y-107696000D02*
X124460000Y-107950000D01*
X125476000Y-106680000D02*
X124460000Y-107696000D01*
X129794000Y-111252000D02*
X125476000Y-111252000D01*
X138684000Y-98552000D02*
X138684000Y-97536000D01*
X139192000Y-99060000D02*
X138684000Y-98552000D01*
X141732000Y-99060000D02*
X139192000Y-99060000D01*
X141732000Y-99060000D02*
X142875000Y-97917000D01*
X142875000Y-97790000D02*
X142875000Y-97917000D01*
X128270000Y-110490000D02*
X127254000Y-109474000D01*
X132842000Y-99314000D02*
X128778000Y-99314000D01*
X150114000Y-103632000D02*
X146558000Y-103632000D01*
D19*
X151638000Y-117475000D02*
X151638000Y-118110000D01*
X151638000Y-118110000D02*
X150368000Y-119380000D01*
X150368000Y-119380000D02*
X147574000Y-119380000D01*
X133731000Y-91313000D02*
X133731000Y-91186000D01*
X132207000Y-92837000D02*
X133731000Y-91313000D01*
X144653000Y-106553000D02*
X144653000Y-101981000D01*
X144272000Y-116078000D02*
X144272000Y-112649000D01*
X146558000Y-100584000D02*
X145288000Y-99314000D01*
X145288000Y-99314000D02*
X145034000Y-99314000D01*
X147320000Y-98679000D02*
X147320000Y-96901000D01*
X148590000Y-96139000D02*
X148590000Y-94234000D01*
X140335000Y-95250000D02*
X140335000Y-92075000D01*
X140335000Y-92075000D02*
X140462000Y-91948000D01*
X140335000Y-97790000D02*
X140208000Y-97790000D01*
X140208000Y-97790000D02*
X139192000Y-96774000D01*
G36*
X155702000Y-122682000D02*
X116586000Y-122682000D01*
X116586000Y-119172060D01*
X117227545Y-119172060D01*
X117310884Y-119425953D01*
X117875306Y-119631590D01*
X118475458Y-119605579D01*
X118909116Y-119425953D01*
X118992455Y-119172060D01*
X118110000Y-118289605D01*
X117227545Y-119172060D01*
X116586000Y-119172060D01*
X116586000Y-117875306D01*
X116588410Y-117875306D01*
X116614421Y-118475458D01*
X116794047Y-118909116D01*
X117047940Y-118992455D01*
X117930395Y-118110000D01*
X118289605Y-118110000D01*
X119172060Y-118992455D01*
X119425953Y-118909116D01*
X119514397Y-118666359D01*
X119579505Y-118823932D01*
X119934201Y-119179248D01*
X120397871Y-119371780D01*
X120899926Y-119372219D01*
X121363932Y-119180495D01*
X121719248Y-118825799D01*
X121752798Y-118745000D01*
X130804899Y-118745000D01*
X130900095Y-119223584D01*
X131171191Y-119629308D01*
X131576915Y-119900404D01*
X132055499Y-119995600D01*
X132104501Y-119995600D01*
X132583085Y-119900404D01*
X132988809Y-119629308D01*
X133259905Y-119223584D01*
X133355101Y-118745000D01*
X133259905Y-118266416D01*
X133002646Y-117881400D01*
X133361819Y-117881400D01*
X133361819Y-119608600D01*
X133388804Y-119752013D01*
X133473561Y-119883730D01*
X133602886Y-119972094D01*
X133756400Y-120003181D01*
X135483600Y-120003181D01*
X135627013Y-119976196D01*
X135758730Y-119891439D01*
X135847094Y-119762114D01*
X135878181Y-119608600D01*
X135878181Y-119544670D01*
X146742356Y-119544670D01*
X146868678Y-119850392D01*
X147102378Y-120084500D01*
X147407879Y-120211355D01*
X147738670Y-120211644D01*
X148044392Y-120085322D01*
X148236048Y-119894000D01*
X150368000Y-119894000D01*
X150564699Y-119854874D01*
X150731453Y-119743453D01*
X151741725Y-118733181D01*
X152501600Y-118733181D01*
X152645013Y-118706196D01*
X152776730Y-118621439D01*
X152865094Y-118492114D01*
X152896181Y-118338600D01*
X152896181Y-116611400D01*
X152869196Y-116467987D01*
X152784439Y-116336270D01*
X152655114Y-116247906D01*
X152501600Y-116216819D01*
X150774400Y-116216819D01*
X150630987Y-116243804D01*
X150499270Y-116328561D01*
X150410906Y-116457886D01*
X150379819Y-116611400D01*
X150379819Y-118338600D01*
X150406804Y-118482013D01*
X150458595Y-118562499D01*
X150155094Y-118866000D01*
X148235790Y-118866000D01*
X148045622Y-118675500D01*
X147740121Y-118548645D01*
X147409330Y-118548356D01*
X147103608Y-118674678D01*
X146869500Y-118908378D01*
X146742645Y-119213879D01*
X146742356Y-119544670D01*
X135878181Y-119544670D01*
X135878181Y-117881400D01*
X135851196Y-117737987D01*
X135766439Y-117606270D01*
X135637114Y-117517906D01*
X135483600Y-117486819D01*
X133756400Y-117486819D01*
X133612987Y-117513804D01*
X133481270Y-117598561D01*
X133392906Y-117727886D01*
X133361819Y-117881400D01*
X133002646Y-117881400D01*
X132988809Y-117860692D01*
X132583085Y-117589596D01*
X132104501Y-117494400D01*
X132055499Y-117494400D01*
X131576915Y-117589596D01*
X131171191Y-117860692D01*
X130900095Y-118266416D01*
X130804899Y-118745000D01*
X121752798Y-118745000D01*
X121911780Y-118362129D01*
X121912219Y-117860074D01*
X121753110Y-117475000D01*
X147822899Y-117475000D01*
X147918095Y-117953584D01*
X148189191Y-118359308D01*
X148594915Y-118630404D01*
X149073499Y-118725600D01*
X149122501Y-118725600D01*
X149601085Y-118630404D01*
X150006809Y-118359308D01*
X150277905Y-117953584D01*
X150373101Y-117475000D01*
X150277905Y-116996416D01*
X150006809Y-116590692D01*
X149601085Y-116319596D01*
X149122501Y-116224400D01*
X149073499Y-116224400D01*
X148594915Y-116319596D01*
X148189191Y-116590692D01*
X147918095Y-116996416D01*
X147822899Y-117475000D01*
X121753110Y-117475000D01*
X121720495Y-117396068D01*
X121365799Y-117040752D01*
X120902129Y-116848220D01*
X120400074Y-116847781D01*
X119936068Y-117039505D01*
X119580752Y-117394201D01*
X119520534Y-117539223D01*
X119425953Y-117310884D01*
X119172060Y-117227545D01*
X118289605Y-118110000D01*
X117930395Y-118110000D01*
X117047940Y-117227545D01*
X116794047Y-117310884D01*
X116588410Y-117875306D01*
X116586000Y-117875306D01*
X116586000Y-116632060D01*
X117227545Y-116632060D01*
X117295800Y-116840000D01*
X117227545Y-117047940D01*
X118110000Y-117930395D01*
X118992455Y-117047940D01*
X118924200Y-116840000D01*
X118992455Y-116632060D01*
X118110000Y-115749605D01*
X117227545Y-116632060D01*
X116586000Y-116632060D01*
X116586000Y-115335306D01*
X116588410Y-115335306D01*
X116614421Y-115935458D01*
X116794047Y-116369116D01*
X117047940Y-116452455D01*
X117930395Y-115570000D01*
X118289605Y-115570000D01*
X119172060Y-116452455D01*
X119425953Y-116369116D01*
X119514397Y-116126359D01*
X119579505Y-116283932D01*
X119934201Y-116639248D01*
X120397871Y-116831780D01*
X120899926Y-116832219D01*
X121363932Y-116640495D01*
X121719248Y-116285799D01*
X121752798Y-116205000D01*
X130804899Y-116205000D01*
X130900095Y-116683584D01*
X131171191Y-117089308D01*
X131576915Y-117360404D01*
X132055499Y-117455600D01*
X132104501Y-117455600D01*
X132583085Y-117360404D01*
X132988809Y-117089308D01*
X133259905Y-116683584D01*
X133350000Y-116230645D01*
X133440095Y-116683584D01*
X133711191Y-117089308D01*
X134116915Y-117360404D01*
X134595499Y-117455600D01*
X134644501Y-117455600D01*
X135123085Y-117360404D01*
X135528809Y-117089308D01*
X135799905Y-116683584D01*
X135895101Y-116205000D01*
X135799905Y-115726416D01*
X135528809Y-115320692D01*
X135123085Y-115049596D01*
X134644501Y-114954400D01*
X134595499Y-114954400D01*
X134116915Y-115049596D01*
X133711191Y-115320692D01*
X133440095Y-115726416D01*
X133350000Y-116179355D01*
X133259905Y-115726416D01*
X132988809Y-115320692D01*
X132583085Y-115049596D01*
X132104501Y-114954400D01*
X132055499Y-114954400D01*
X131576915Y-115049596D01*
X131171191Y-115320692D01*
X130900095Y-115726416D01*
X130804899Y-116205000D01*
X121752798Y-116205000D01*
X121911780Y-115822129D01*
X121912219Y-115320074D01*
X121720495Y-114856068D01*
X121365799Y-114500752D01*
X120902129Y-114308220D01*
X120400074Y-114307781D01*
X119936068Y-114499505D01*
X119580752Y-114854201D01*
X119520534Y-114999223D01*
X119425953Y-114770884D01*
X119172060Y-114687545D01*
X118289605Y-115570000D01*
X117930395Y-115570000D01*
X117047940Y-114687545D01*
X116794047Y-114770884D01*
X116588410Y-115335306D01*
X116586000Y-115335306D01*
X116586000Y-114092060D01*
X117227545Y-114092060D01*
X117295800Y-114300000D01*
X117227545Y-114507940D01*
X118110000Y-115390395D01*
X118992455Y-114507940D01*
X118924200Y-114300000D01*
X118992455Y-114092060D01*
X118110000Y-113209605D01*
X117227545Y-114092060D01*
X116586000Y-114092060D01*
X116586000Y-112795306D01*
X116588410Y-112795306D01*
X116614421Y-113395458D01*
X116794047Y-113829116D01*
X117047940Y-113912455D01*
X117930395Y-113030000D01*
X118289605Y-113030000D01*
X119172060Y-113912455D01*
X119425953Y-113829116D01*
X119514397Y-113586359D01*
X119579505Y-113743932D01*
X119934201Y-114099248D01*
X120397871Y-114291780D01*
X120899926Y-114292219D01*
X121363932Y-114100495D01*
X121719248Y-113745799D01*
X121752798Y-113665000D01*
X130804899Y-113665000D01*
X130900095Y-114143584D01*
X131171191Y-114549308D01*
X131576915Y-114820404D01*
X132055499Y-114915600D01*
X132104501Y-114915600D01*
X132583085Y-114820404D01*
X132988809Y-114549308D01*
X133259905Y-114143584D01*
X133350000Y-113690645D01*
X133440095Y-114143584D01*
X133711191Y-114549308D01*
X134116915Y-114820404D01*
X134595499Y-114915600D01*
X134644501Y-114915600D01*
X135123085Y-114820404D01*
X135528809Y-114549308D01*
X135799905Y-114143584D01*
X135895101Y-113665000D01*
X135799905Y-113186416D01*
X135550845Y-112813670D01*
X143440356Y-112813670D01*
X143566678Y-113119392D01*
X143758000Y-113311048D01*
X143758000Y-115416210D01*
X143567500Y-115606378D01*
X143440645Y-115911879D01*
X143440356Y-116242670D01*
X143566678Y-116548392D01*
X143800378Y-116782500D01*
X144105879Y-116909355D01*
X144436670Y-116909644D01*
X144742392Y-116783322D01*
X144976500Y-116549622D01*
X145103355Y-116244121D01*
X145103644Y-115913330D01*
X144977322Y-115607608D01*
X144786000Y-115415952D01*
X144786000Y-113310790D01*
X144976500Y-113120622D01*
X145103355Y-112815121D01*
X145103644Y-112484330D01*
X145066734Y-112395000D01*
X147822899Y-112395000D01*
X147918095Y-112873584D01*
X148189191Y-113279308D01*
X148594915Y-113550404D01*
X149073499Y-113645600D01*
X149122501Y-113645600D01*
X149601085Y-113550404D01*
X150006809Y-113279308D01*
X150249913Y-112915477D01*
X150355312Y-113169947D01*
X150749510Y-113601821D01*
X151132403Y-113781274D01*
X150729191Y-114050692D01*
X150458095Y-114456416D01*
X150368000Y-114909355D01*
X150277905Y-114456416D01*
X150006809Y-114050692D01*
X149601085Y-113779596D01*
X149122501Y-113684400D01*
X149073499Y-113684400D01*
X148594915Y-113779596D01*
X148189191Y-114050692D01*
X147918095Y-114456416D01*
X147822899Y-114935000D01*
X147918095Y-115413584D01*
X148189191Y-115819308D01*
X148594915Y-116090404D01*
X149073499Y-116185600D01*
X149122501Y-116185600D01*
X149601085Y-116090404D01*
X150006809Y-115819308D01*
X150277905Y-115413584D01*
X150368000Y-114960645D01*
X150458095Y-115413584D01*
X150729191Y-115819308D01*
X151134915Y-116090404D01*
X151613499Y-116185600D01*
X151662501Y-116185600D01*
X152141085Y-116090404D01*
X152546809Y-115819308D01*
X152817905Y-115413584D01*
X152913101Y-114935000D01*
X152817905Y-114456416D01*
X152546809Y-114050692D01*
X152143597Y-113781274D01*
X152526490Y-113601821D01*
X152920688Y-113169947D01*
X153092958Y-112754026D01*
X152971817Y-112522000D01*
X151765000Y-112522000D01*
X151765000Y-112542000D01*
X151511000Y-112542000D01*
X151511000Y-112522000D01*
X151491000Y-112522000D01*
X151491000Y-112268000D01*
X151511000Y-112268000D01*
X151511000Y-111060531D01*
X151765000Y-111060531D01*
X151765000Y-112268000D01*
X152971817Y-112268000D01*
X153092958Y-112035974D01*
X152920688Y-111620053D01*
X152526490Y-111188179D01*
X151997027Y-110940032D01*
X151765000Y-111060531D01*
X151511000Y-111060531D01*
X151278973Y-110940032D01*
X150749510Y-111188179D01*
X150355312Y-111620053D01*
X150249913Y-111874523D01*
X150006809Y-111510692D01*
X149601085Y-111239596D01*
X149122501Y-111144400D01*
X149073499Y-111144400D01*
X148594915Y-111239596D01*
X148189191Y-111510692D01*
X147918095Y-111916416D01*
X147822899Y-112395000D01*
X145066734Y-112395000D01*
X144977322Y-112178608D01*
X144743622Y-111944500D01*
X144438121Y-111817645D01*
X144107330Y-111817356D01*
X143801608Y-111943678D01*
X143567500Y-112177378D01*
X143440645Y-112482879D01*
X143440356Y-112813670D01*
X135550845Y-112813670D01*
X135528809Y-112780692D01*
X135123085Y-112509596D01*
X134644501Y-112414400D01*
X134595499Y-112414400D01*
X134116915Y-112509596D01*
X133711191Y-112780692D01*
X133440095Y-113186416D01*
X133350000Y-113639355D01*
X133259905Y-113186416D01*
X132988809Y-112780692D01*
X132583085Y-112509596D01*
X132104501Y-112414400D01*
X132055499Y-112414400D01*
X131576915Y-112509596D01*
X131171191Y-112780692D01*
X130900095Y-113186416D01*
X130804899Y-113665000D01*
X121752798Y-113665000D01*
X121911780Y-113282129D01*
X121912219Y-112780074D01*
X121720495Y-112316068D01*
X121365799Y-111960752D01*
X120902129Y-111768220D01*
X120400074Y-111767781D01*
X119936068Y-111959505D01*
X119580752Y-112314201D01*
X119520534Y-112459223D01*
X119425953Y-112230884D01*
X119172060Y-112147545D01*
X118289605Y-113030000D01*
X117930395Y-113030000D01*
X117047940Y-112147545D01*
X116794047Y-112230884D01*
X116588410Y-112795306D01*
X116586000Y-112795306D01*
X116586000Y-111552060D01*
X117227545Y-111552060D01*
X117295800Y-111760000D01*
X117227545Y-111967940D01*
X118110000Y-112850395D01*
X118992455Y-111967940D01*
X118924200Y-111760000D01*
X118992455Y-111552060D01*
X118110000Y-110669605D01*
X117227545Y-111552060D01*
X116586000Y-111552060D01*
X116586000Y-110255306D01*
X116588410Y-110255306D01*
X116614421Y-110855458D01*
X116794047Y-111289116D01*
X117047940Y-111372455D01*
X117930395Y-110490000D01*
X118289605Y-110490000D01*
X119172060Y-111372455D01*
X119425953Y-111289116D01*
X119514397Y-111046359D01*
X119579505Y-111203932D01*
X119934201Y-111559248D01*
X120397871Y-111751780D01*
X120899926Y-111752219D01*
X121363932Y-111560495D01*
X121553141Y-111371616D01*
X124871895Y-111371616D01*
X124963655Y-111593692D01*
X125133415Y-111763748D01*
X125355330Y-111855895D01*
X125595616Y-111856105D01*
X125817692Y-111764345D01*
X125841478Y-111740600D01*
X129428307Y-111740600D01*
X129451415Y-111763748D01*
X129673330Y-111855895D01*
X129913616Y-111856105D01*
X130135692Y-111764345D01*
X130305748Y-111594585D01*
X130397895Y-111372670D01*
X130398105Y-111132384D01*
X130306345Y-110910308D01*
X130136585Y-110740252D01*
X129914670Y-110648105D01*
X129674384Y-110647895D01*
X129452308Y-110739655D01*
X129428522Y-110763400D01*
X128810476Y-110763400D01*
X128873895Y-110610670D01*
X128874105Y-110370384D01*
X128782345Y-110148308D01*
X128612585Y-109978252D01*
X128390670Y-109886105D01*
X128357060Y-109886076D01*
X127858076Y-109387092D01*
X127858105Y-109354384D01*
X127766345Y-109132308D01*
X127596585Y-108962252D01*
X127374670Y-108870105D01*
X127134384Y-108869895D01*
X126912308Y-108961655D01*
X126742252Y-109131415D01*
X126650105Y-109353330D01*
X126649895Y-109593616D01*
X126741655Y-109815692D01*
X126911415Y-109985748D01*
X127133330Y-110077895D01*
X127166940Y-110077924D01*
X127665924Y-110576908D01*
X127665895Y-110609616D01*
X127729437Y-110763400D01*
X125841693Y-110763400D01*
X125818585Y-110740252D01*
X125596670Y-110648105D01*
X125356384Y-110647895D01*
X125134308Y-110739655D01*
X124964252Y-110909415D01*
X124872105Y-111131330D01*
X124871895Y-111371616D01*
X121553141Y-111371616D01*
X121719248Y-111205799D01*
X121911780Y-110742129D01*
X121912219Y-110240074D01*
X121720495Y-109776068D01*
X121365799Y-109420752D01*
X120902129Y-109228220D01*
X120400074Y-109227781D01*
X119936068Y-109419505D01*
X119580752Y-109774201D01*
X119520534Y-109919223D01*
X119425953Y-109690884D01*
X119172060Y-109607545D01*
X118289605Y-110490000D01*
X117930395Y-110490000D01*
X117047940Y-109607545D01*
X116794047Y-109690884D01*
X116588410Y-110255306D01*
X116586000Y-110255306D01*
X116586000Y-109012060D01*
X117227545Y-109012060D01*
X117295800Y-109220000D01*
X117227545Y-109427940D01*
X118110000Y-110310395D01*
X118992455Y-109427940D01*
X118924200Y-109220000D01*
X118992455Y-109012060D01*
X118110000Y-108129605D01*
X117227545Y-109012060D01*
X116586000Y-109012060D01*
X116586000Y-107715306D01*
X116588410Y-107715306D01*
X116614421Y-108315458D01*
X116794047Y-108749116D01*
X117047940Y-108832455D01*
X117930395Y-107950000D01*
X118289605Y-107950000D01*
X119172060Y-108832455D01*
X119425953Y-108749116D01*
X119514397Y-108506359D01*
X119579505Y-108663932D01*
X119934201Y-109019248D01*
X120397871Y-109211780D01*
X120899926Y-109212219D01*
X121363932Y-109020495D01*
X121719248Y-108665799D01*
X121752798Y-108585000D01*
X130804899Y-108585000D01*
X130900095Y-109063584D01*
X131171191Y-109469308D01*
X131576915Y-109740404D01*
X132055499Y-109835600D01*
X132104501Y-109835600D01*
X132583085Y-109740404D01*
X132988809Y-109469308D01*
X133231913Y-109105477D01*
X133337312Y-109359947D01*
X133731510Y-109791821D01*
X134114403Y-109971274D01*
X133711191Y-110240692D01*
X133440095Y-110646416D01*
X133350000Y-111099355D01*
X133259905Y-110646416D01*
X132988809Y-110240692D01*
X132583085Y-109969596D01*
X132104501Y-109874400D01*
X132055499Y-109874400D01*
X131576915Y-109969596D01*
X131171191Y-110240692D01*
X130900095Y-110646416D01*
X130804899Y-111125000D01*
X130900095Y-111603584D01*
X131171191Y-112009308D01*
X131576915Y-112280404D01*
X132055499Y-112375600D01*
X132104501Y-112375600D01*
X132583085Y-112280404D01*
X132988809Y-112009308D01*
X133259905Y-111603584D01*
X133350000Y-111150645D01*
X133440095Y-111603584D01*
X133711191Y-112009308D01*
X134116915Y-112280404D01*
X134595499Y-112375600D01*
X134644501Y-112375600D01*
X135123085Y-112280404D01*
X135528809Y-112009308D01*
X135799905Y-111603584D01*
X135895101Y-111125000D01*
X135799905Y-110646416D01*
X135528809Y-110240692D01*
X135125597Y-109971274D01*
X135508490Y-109791821D01*
X135902688Y-109359947D01*
X136074958Y-108944026D01*
X135953817Y-108712000D01*
X134747000Y-108712000D01*
X134747000Y-108732000D01*
X134493000Y-108732000D01*
X134493000Y-108712000D01*
X134473000Y-108712000D01*
X134473000Y-108458000D01*
X134493000Y-108458000D01*
X134493000Y-107250531D01*
X134747000Y-107250531D01*
X134747000Y-108458000D01*
X135953817Y-108458000D01*
X136074958Y-108225974D01*
X135902688Y-107810053D01*
X135508490Y-107378179D01*
X134979027Y-107130032D01*
X134747000Y-107250531D01*
X134493000Y-107250531D01*
X134260973Y-107130032D01*
X133731510Y-107378179D01*
X133337312Y-107810053D01*
X133231913Y-108064523D01*
X132988809Y-107700692D01*
X132583085Y-107429596D01*
X132104501Y-107334400D01*
X132055499Y-107334400D01*
X131576915Y-107429596D01*
X131171191Y-107700692D01*
X130900095Y-108106416D01*
X130804899Y-108585000D01*
X121752798Y-108585000D01*
X121911780Y-108202129D01*
X121911895Y-108069616D01*
X123855895Y-108069616D01*
X123947655Y-108291692D01*
X124117415Y-108461748D01*
X124339330Y-108553895D01*
X124579616Y-108554105D01*
X124801692Y-108462345D01*
X124971748Y-108292585D01*
X125063895Y-108070670D01*
X125064105Y-107830384D01*
X125050215Y-107796769D01*
X125562908Y-107284076D01*
X125595616Y-107284105D01*
X125817692Y-107192345D01*
X125987748Y-107022585D01*
X126079895Y-106800670D01*
X126080105Y-106560384D01*
X125988345Y-106338308D01*
X125818585Y-106168252D01*
X125596670Y-106076105D01*
X125356384Y-106075895D01*
X125134308Y-106167655D01*
X124964252Y-106337415D01*
X124872105Y-106559330D01*
X124872076Y-106592940D01*
X124114508Y-107350508D01*
X124008592Y-107509020D01*
X124008592Y-107509021D01*
X123999121Y-107556634D01*
X123948252Y-107607415D01*
X123856105Y-107829330D01*
X123855895Y-108069616D01*
X121911895Y-108069616D01*
X121912219Y-107700074D01*
X121720495Y-107236068D01*
X121365799Y-106880752D01*
X120902129Y-106688220D01*
X120400074Y-106687781D01*
X119936068Y-106879505D01*
X119580752Y-107234201D01*
X119520534Y-107379223D01*
X119425953Y-107150884D01*
X119172060Y-107067545D01*
X118289605Y-107950000D01*
X117930395Y-107950000D01*
X117047940Y-107067545D01*
X116794047Y-107150884D01*
X116588410Y-107715306D01*
X116586000Y-107715306D01*
X116586000Y-106472060D01*
X117227545Y-106472060D01*
X117295800Y-106680000D01*
X117227545Y-106887940D01*
X118110000Y-107770395D01*
X118992455Y-106887940D01*
X118924200Y-106680000D01*
X118992455Y-106472060D01*
X118110000Y-105589605D01*
X117227545Y-106472060D01*
X116586000Y-106472060D01*
X116586000Y-105175306D01*
X116588410Y-105175306D01*
X116614421Y-105775458D01*
X116794047Y-106209116D01*
X117047940Y-106292455D01*
X117930395Y-105410000D01*
X118289605Y-105410000D01*
X119172060Y-106292455D01*
X119425953Y-106209116D01*
X119514397Y-105966359D01*
X119579505Y-106123932D01*
X119934201Y-106479248D01*
X120397871Y-106671780D01*
X120899926Y-106672219D01*
X121363932Y-106480495D01*
X121719248Y-106125799D01*
X121911780Y-105662129D01*
X121912117Y-105275616D01*
X136047895Y-105275616D01*
X136139655Y-105497692D01*
X136309415Y-105667748D01*
X136531330Y-105759895D01*
X136564940Y-105759924D01*
X137063924Y-106258908D01*
X137063895Y-106291616D01*
X137155655Y-106513692D01*
X137325415Y-106683748D01*
X137547330Y-106775895D01*
X137787616Y-106776105D01*
X138009692Y-106684345D01*
X138179748Y-106514585D01*
X138271895Y-106292670D01*
X138272105Y-106052384D01*
X138180345Y-105830308D01*
X138119170Y-105769026D01*
X138880042Y-105769026D01*
X139052312Y-106184947D01*
X139446510Y-106616821D01*
X139975973Y-106864968D01*
X140208000Y-106744469D01*
X140208000Y-105537000D01*
X139001183Y-105537000D01*
X138880042Y-105769026D01*
X138119170Y-105769026D01*
X138010585Y-105660252D01*
X137788670Y-105568105D01*
X137755060Y-105568076D01*
X137256076Y-105069092D01*
X137256105Y-105036384D01*
X137164345Y-104814308D01*
X136994585Y-104644252D01*
X136772670Y-104552105D01*
X136532384Y-104551895D01*
X136310308Y-104643655D01*
X136140252Y-104813415D01*
X136048105Y-105035330D01*
X136047895Y-105275616D01*
X121912117Y-105275616D01*
X121912219Y-105160074D01*
X121720495Y-104696068D01*
X121365799Y-104340752D01*
X120902129Y-104148220D01*
X120400074Y-104147781D01*
X119936068Y-104339505D01*
X119580752Y-104694201D01*
X119520534Y-104839223D01*
X119425953Y-104610884D01*
X119172060Y-104527545D01*
X118289605Y-105410000D01*
X117930395Y-105410000D01*
X117047940Y-104527545D01*
X116794047Y-104610884D01*
X116588410Y-105175306D01*
X116586000Y-105175306D01*
X116586000Y-103932060D01*
X117227545Y-103932060D01*
X117295800Y-104140000D01*
X117227545Y-104347940D01*
X118110000Y-105230395D01*
X118992455Y-104347940D01*
X118924200Y-104140000D01*
X118992455Y-103932060D01*
X118110000Y-103049605D01*
X117227545Y-103932060D01*
X116586000Y-103932060D01*
X116586000Y-102635306D01*
X116588410Y-102635306D01*
X116614421Y-103235458D01*
X116794047Y-103669116D01*
X117047940Y-103752455D01*
X117930395Y-102870000D01*
X118289605Y-102870000D01*
X119172060Y-103752455D01*
X119425953Y-103669116D01*
X119514397Y-103426359D01*
X119579505Y-103583932D01*
X119934201Y-103939248D01*
X120397871Y-104131780D01*
X120899926Y-104132219D01*
X121363932Y-103940495D01*
X121719248Y-103585799D01*
X121911780Y-103122129D01*
X121912219Y-102620074D01*
X121720495Y-102156068D01*
X121365799Y-101800752D01*
X120902129Y-101608220D01*
X120400074Y-101607781D01*
X119936068Y-101799505D01*
X119580752Y-102154201D01*
X119520534Y-102299223D01*
X119425953Y-102070884D01*
X119172060Y-101987545D01*
X118289605Y-102870000D01*
X117930395Y-102870000D01*
X117047940Y-101987545D01*
X116794047Y-102070884D01*
X116588410Y-102635306D01*
X116586000Y-102635306D01*
X116586000Y-101392060D01*
X117227545Y-101392060D01*
X117295800Y-101600000D01*
X117227545Y-101807940D01*
X118110000Y-102690395D01*
X118992455Y-101807940D01*
X118924200Y-101600000D01*
X118992455Y-101392060D01*
X118110000Y-100509605D01*
X117227545Y-101392060D01*
X116586000Y-101392060D01*
X116586000Y-100095306D01*
X116588410Y-100095306D01*
X116614421Y-100695458D01*
X116794047Y-101129116D01*
X117047940Y-101212455D01*
X117930395Y-100330000D01*
X118289605Y-100330000D01*
X119172060Y-101212455D01*
X119425953Y-101129116D01*
X119514397Y-100886359D01*
X119579505Y-101043932D01*
X119934201Y-101399248D01*
X120397871Y-101591780D01*
X120899926Y-101592219D01*
X121363932Y-101400495D01*
X121719248Y-101045799D01*
X121911780Y-100582129D01*
X121912219Y-100080074D01*
X121720495Y-99616068D01*
X121538362Y-99433616D01*
X128173895Y-99433616D01*
X128265655Y-99655692D01*
X128435415Y-99825748D01*
X128657330Y-99917895D01*
X128897616Y-99918105D01*
X129119692Y-99826345D01*
X129143478Y-99802600D01*
X132476307Y-99802600D01*
X132499415Y-99825748D01*
X132721330Y-99917895D01*
X132961616Y-99918105D01*
X133183692Y-99826345D01*
X133353748Y-99656585D01*
X133445895Y-99434670D01*
X133446105Y-99194384D01*
X133354345Y-98972308D01*
X133184585Y-98802252D01*
X132962670Y-98710105D01*
X132722384Y-98709895D01*
X132500308Y-98801655D01*
X132476522Y-98825400D01*
X129143693Y-98825400D01*
X129120585Y-98802252D01*
X128898670Y-98710105D01*
X128658384Y-98709895D01*
X128436308Y-98801655D01*
X128266252Y-98971415D01*
X128174105Y-99193330D01*
X128173895Y-99433616D01*
X121538362Y-99433616D01*
X121365799Y-99260752D01*
X120902129Y-99068220D01*
X120400074Y-99067781D01*
X119936068Y-99259505D01*
X119580752Y-99614201D01*
X119520534Y-99759223D01*
X119425953Y-99530884D01*
X119172060Y-99447545D01*
X118289605Y-100330000D01*
X117930395Y-100330000D01*
X117047940Y-99447545D01*
X116794047Y-99530884D01*
X116588410Y-100095306D01*
X116586000Y-100095306D01*
X116586000Y-98852060D01*
X117227545Y-98852060D01*
X117295800Y-99060000D01*
X117227545Y-99267940D01*
X118110000Y-100150395D01*
X118992455Y-99267940D01*
X118924200Y-99060000D01*
X118992455Y-98852060D01*
X118110000Y-97969605D01*
X117227545Y-98852060D01*
X116586000Y-98852060D01*
X116586000Y-97555306D01*
X116588410Y-97555306D01*
X116614421Y-98155458D01*
X116794047Y-98589116D01*
X117047940Y-98672455D01*
X117930395Y-97790000D01*
X118289605Y-97790000D01*
X119172060Y-98672455D01*
X119425953Y-98589116D01*
X119514397Y-98346359D01*
X119579505Y-98503932D01*
X119934201Y-98859248D01*
X120397871Y-99051780D01*
X120899926Y-99052219D01*
X121363932Y-98860495D01*
X121719248Y-98505799D01*
X121911780Y-98042129D01*
X121912117Y-97655616D01*
X138079895Y-97655616D01*
X138171655Y-97877692D01*
X138195400Y-97901478D01*
X138195400Y-98552000D01*
X138220662Y-98679000D01*
X138232592Y-98738980D01*
X138338508Y-98897492D01*
X138846507Y-99405492D01*
X138906671Y-99445692D01*
X139005021Y-99511408D01*
X139078761Y-99526076D01*
X139052312Y-99555053D01*
X138880042Y-99970974D01*
X139001183Y-100203000D01*
X140208000Y-100203000D01*
X140208000Y-100183000D01*
X140462000Y-100183000D01*
X140462000Y-100203000D01*
X140482000Y-100203000D01*
X140482000Y-100457000D01*
X140462000Y-100457000D01*
X140462000Y-100477000D01*
X140208000Y-100477000D01*
X140208000Y-100457000D01*
X139001183Y-100457000D01*
X138880042Y-100689026D01*
X139052312Y-101104947D01*
X139446510Y-101536821D01*
X139829403Y-101716274D01*
X139426191Y-101985692D01*
X139155095Y-102391416D01*
X139059899Y-102870000D01*
X139155095Y-103348584D01*
X139426191Y-103754308D01*
X139829403Y-104023726D01*
X139446510Y-104203179D01*
X139052312Y-104635053D01*
X138880042Y-105050974D01*
X139001183Y-105283000D01*
X140208000Y-105283000D01*
X140208000Y-105263000D01*
X140462000Y-105263000D01*
X140462000Y-105283000D01*
X140482000Y-105283000D01*
X140482000Y-105537000D01*
X140462000Y-105537000D01*
X140462000Y-106744469D01*
X140694027Y-106864968D01*
X141223490Y-106616821D01*
X141617688Y-106184947D01*
X141723087Y-105930477D01*
X141966191Y-106294308D01*
X142371915Y-106565404D01*
X142850499Y-106660600D01*
X142899501Y-106660600D01*
X143378085Y-106565404D01*
X143783809Y-106294308D01*
X144054905Y-105888584D01*
X144139000Y-105465809D01*
X144139000Y-105891210D01*
X143948500Y-106081378D01*
X143821645Y-106386879D01*
X143821356Y-106717670D01*
X143947678Y-107023392D01*
X144181378Y-107257500D01*
X144486879Y-107384355D01*
X144817670Y-107384644D01*
X145123392Y-107258322D01*
X145357500Y-107024622D01*
X145484355Y-106719121D01*
X145484644Y-106388330D01*
X145358322Y-106082608D01*
X145167000Y-105890952D01*
X145167000Y-103751616D01*
X145953895Y-103751616D01*
X146045655Y-103973692D01*
X146215415Y-104143748D01*
X146437330Y-104235895D01*
X146677616Y-104236105D01*
X146899692Y-104144345D01*
X146923478Y-104120600D01*
X149748307Y-104120600D01*
X149771415Y-104143748D01*
X149993330Y-104235895D01*
X150233616Y-104236105D01*
X150455692Y-104144345D01*
X150625748Y-103974585D01*
X150717895Y-103752670D01*
X150718105Y-103512384D01*
X150626345Y-103290308D01*
X150456585Y-103120252D01*
X150234670Y-103028105D01*
X149994384Y-103027895D01*
X149772308Y-103119655D01*
X149748522Y-103143400D01*
X146923693Y-103143400D01*
X146900585Y-103120252D01*
X146678670Y-103028105D01*
X146438384Y-103027895D01*
X146216308Y-103119655D01*
X146046252Y-103289415D01*
X145954105Y-103511330D01*
X145953895Y-103751616D01*
X145167000Y-103751616D01*
X145167000Y-102642790D01*
X145357500Y-102452622D01*
X145484355Y-102147121D01*
X145484644Y-101816330D01*
X145358322Y-101510608D01*
X145124622Y-101276500D01*
X144819121Y-101149645D01*
X144488330Y-101149356D01*
X144182608Y-101275678D01*
X143948500Y-101509378D01*
X143821645Y-101814879D01*
X143821447Y-102042021D01*
X143783809Y-101985692D01*
X143378085Y-101714596D01*
X142899501Y-101619400D01*
X142850499Y-101619400D01*
X142371915Y-101714596D01*
X141966191Y-101985692D01*
X141695095Y-102391416D01*
X141605000Y-102844355D01*
X141514905Y-102391416D01*
X141243809Y-101985692D01*
X140840597Y-101716274D01*
X141223490Y-101536821D01*
X141617688Y-101104947D01*
X141723087Y-100850477D01*
X141966191Y-101214308D01*
X142371915Y-101485404D01*
X142850499Y-101580600D01*
X142899501Y-101580600D01*
X143378085Y-101485404D01*
X143783809Y-101214308D01*
X144054905Y-100808584D01*
X144150101Y-100330000D01*
X144054905Y-99851416D01*
X143805845Y-99478670D01*
X144202356Y-99478670D01*
X144328678Y-99784392D01*
X144562378Y-100018500D01*
X144867879Y-100145355D01*
X145198670Y-100145644D01*
X145335996Y-100088902D01*
X145726591Y-100479497D01*
X145726356Y-100748670D01*
X145852678Y-101054392D01*
X146086378Y-101288500D01*
X146391879Y-101415355D01*
X146722670Y-101415644D01*
X147028392Y-101289322D01*
X147262500Y-101055622D01*
X147389355Y-100750121D01*
X147389644Y-100419330D01*
X147263322Y-100113608D01*
X147029622Y-99879500D01*
X146724121Y-99752645D01*
X146453314Y-99752408D01*
X145865631Y-99164725D01*
X145865644Y-99149330D01*
X145739322Y-98843608D01*
X145505622Y-98609500D01*
X145200121Y-98482645D01*
X144869330Y-98482356D01*
X144563608Y-98608678D01*
X144329500Y-98842378D01*
X144202645Y-99147879D01*
X144202356Y-99478670D01*
X143805845Y-99478670D01*
X143783809Y-99445692D01*
X143378085Y-99174596D01*
X142899501Y-99079400D01*
X142850499Y-99079400D01*
X142371915Y-99174596D01*
X142180466Y-99302518D01*
X142510094Y-98972890D01*
X142850499Y-99040600D01*
X142899501Y-99040600D01*
X143378085Y-98945404D01*
X143783809Y-98674308D01*
X144054905Y-98268584D01*
X144150101Y-97790000D01*
X144054905Y-97311416D01*
X143890703Y-97065670D01*
X146488356Y-97065670D01*
X146614678Y-97371392D01*
X146806000Y-97563048D01*
X146806000Y-98017210D01*
X146615500Y-98207378D01*
X146488645Y-98512879D01*
X146488356Y-98843670D01*
X146614678Y-99149392D01*
X146848378Y-99383500D01*
X147153879Y-99510355D01*
X147484670Y-99510644D01*
X147790392Y-99384322D01*
X148024500Y-99150622D01*
X148151355Y-98845121D01*
X148151644Y-98514330D01*
X148025322Y-98208608D01*
X147834000Y-98016952D01*
X147834000Y-97562790D01*
X148024500Y-97372622D01*
X148151355Y-97067121D01*
X148151538Y-96857269D01*
X148423879Y-96970355D01*
X148754670Y-96970644D01*
X149060392Y-96844322D01*
X149294500Y-96610622D01*
X149421355Y-96305121D01*
X149421644Y-95974330D01*
X149295322Y-95668608D01*
X149104000Y-95476952D01*
X149104000Y-94895790D01*
X149294500Y-94705622D01*
X149421355Y-94400121D01*
X149421644Y-94069330D01*
X149295322Y-93763608D01*
X149061622Y-93529500D01*
X148756121Y-93402645D01*
X148425330Y-93402356D01*
X148119608Y-93528678D01*
X147885500Y-93762378D01*
X147758645Y-94067879D01*
X147758356Y-94398670D01*
X147884678Y-94704392D01*
X148076000Y-94896048D01*
X148076000Y-95477210D01*
X147885500Y-95667378D01*
X147758645Y-95972879D01*
X147758462Y-96182731D01*
X147486121Y-96069645D01*
X147155330Y-96069356D01*
X146849608Y-96195678D01*
X146615500Y-96429378D01*
X146488645Y-96734879D01*
X146488356Y-97065670D01*
X143890703Y-97065670D01*
X143783809Y-96905692D01*
X143378085Y-96634596D01*
X142899501Y-96539400D01*
X142850499Y-96539400D01*
X142371915Y-96634596D01*
X141966191Y-96905692D01*
X141723087Y-97269523D01*
X141617688Y-97015053D01*
X141223490Y-96583179D01*
X141063469Y-96508181D01*
X141198600Y-96508181D01*
X141342013Y-96481196D01*
X141473730Y-96396439D01*
X141562094Y-96267114D01*
X141593181Y-96113600D01*
X141593181Y-95250000D01*
X141599899Y-95250000D01*
X141695095Y-95728584D01*
X141966191Y-96134308D01*
X142371915Y-96405404D01*
X142850499Y-96500600D01*
X142899501Y-96500600D01*
X143378085Y-96405404D01*
X143783809Y-96134308D01*
X144054905Y-95728584D01*
X144150101Y-95250000D01*
X144054905Y-94771416D01*
X143783809Y-94365692D01*
X143378085Y-94094596D01*
X142899501Y-93999400D01*
X142850499Y-93999400D01*
X142371915Y-94094596D01*
X141966191Y-94365692D01*
X141695095Y-94771416D01*
X141599899Y-95250000D01*
X141593181Y-95250000D01*
X141593181Y-94386400D01*
X141566196Y-94242987D01*
X141481439Y-94111270D01*
X141352114Y-94022906D01*
X141198600Y-93991819D01*
X140849000Y-93991819D01*
X140849000Y-92687779D01*
X140932392Y-92653322D01*
X141166500Y-92419622D01*
X141293355Y-92114121D01*
X141293644Y-91783330D01*
X141234594Y-91640416D01*
X145382825Y-91640416D01*
X145536568Y-92012503D01*
X145821000Y-92297431D01*
X146192818Y-92451824D01*
X146595416Y-92452175D01*
X146967503Y-92298432D01*
X147252431Y-92014000D01*
X147370984Y-91728494D01*
X147520357Y-92090006D01*
X147843294Y-92413507D01*
X148265447Y-92588800D01*
X148722547Y-92589199D01*
X149145006Y-92414643D01*
X149468507Y-92091706D01*
X149494848Y-92028270D01*
X149520357Y-92090006D01*
X149843294Y-92413507D01*
X150265447Y-92588800D01*
X150722547Y-92589199D01*
X151145006Y-92414643D01*
X151468507Y-92091706D01*
X151494848Y-92028270D01*
X151520357Y-92090006D01*
X151843294Y-92413507D01*
X152265447Y-92588800D01*
X152722547Y-92589199D01*
X153145006Y-92414643D01*
X153468507Y-92091706D01*
X153619272Y-91728624D01*
X153736568Y-92012503D01*
X154021000Y-92297431D01*
X154392818Y-92451824D01*
X154795416Y-92452175D01*
X155167503Y-92298432D01*
X155452431Y-92014000D01*
X155606824Y-91642182D01*
X155607175Y-91239584D01*
X155453432Y-90867497D01*
X155169000Y-90582569D01*
X154797182Y-90428176D01*
X154394584Y-90427825D01*
X154022497Y-90581568D01*
X153737569Y-90866000D01*
X153619016Y-91151506D01*
X153469643Y-90789994D01*
X153146706Y-90466493D01*
X152724553Y-90291200D01*
X152267453Y-90290801D01*
X151844994Y-90465357D01*
X151521493Y-90788294D01*
X151495152Y-90851730D01*
X151469643Y-90789994D01*
X151146706Y-90466493D01*
X150724553Y-90291200D01*
X150267453Y-90290801D01*
X149844994Y-90465357D01*
X149521493Y-90788294D01*
X149495152Y-90851730D01*
X149469643Y-90789994D01*
X149146706Y-90466493D01*
X148724553Y-90291200D01*
X148267453Y-90290801D01*
X147844994Y-90465357D01*
X147521493Y-90788294D01*
X147370728Y-91151376D01*
X147253432Y-90867497D01*
X146969000Y-90582569D01*
X146597182Y-90428176D01*
X146194584Y-90427825D01*
X145822497Y-90581568D01*
X145537569Y-90866000D01*
X145383176Y-91237818D01*
X145382825Y-91640416D01*
X141234594Y-91640416D01*
X141167322Y-91477608D01*
X140933622Y-91243500D01*
X140628121Y-91116645D01*
X140297330Y-91116356D01*
X139991608Y-91242678D01*
X139757500Y-91476378D01*
X139630645Y-91781879D01*
X139630356Y-92112670D01*
X139756678Y-92418392D01*
X139821000Y-92482826D01*
X139821000Y-93991819D01*
X139471400Y-93991819D01*
X139327987Y-94018804D01*
X139196270Y-94103561D01*
X139107906Y-94232886D01*
X139076819Y-94386400D01*
X139076819Y-96113600D01*
X139103804Y-96257013D01*
X139188561Y-96388730D01*
X139317886Y-96477094D01*
X139471400Y-96508181D01*
X139606531Y-96508181D01*
X139446510Y-96583179D01*
X139052312Y-97015053D01*
X139042075Y-97039769D01*
X139026585Y-97024252D01*
X138804670Y-96932105D01*
X138564384Y-96931895D01*
X138342308Y-97023655D01*
X138172252Y-97193415D01*
X138080105Y-97415330D01*
X138079895Y-97655616D01*
X121912117Y-97655616D01*
X121912219Y-97540074D01*
X121720495Y-97076068D01*
X121365799Y-96720752D01*
X120902129Y-96528220D01*
X120400074Y-96527781D01*
X119936068Y-96719505D01*
X119580752Y-97074201D01*
X119520534Y-97219223D01*
X119425953Y-96990884D01*
X119172060Y-96907545D01*
X118289605Y-97790000D01*
X117930395Y-97790000D01*
X117047940Y-96907545D01*
X116794047Y-96990884D01*
X116588410Y-97555306D01*
X116586000Y-97555306D01*
X116586000Y-95499926D01*
X116847781Y-95499926D01*
X117039505Y-95963932D01*
X117394201Y-96319248D01*
X117539223Y-96379466D01*
X117310884Y-96474047D01*
X117227545Y-96727940D01*
X118110000Y-97610395D01*
X118992455Y-96727940D01*
X118909116Y-96474047D01*
X118666359Y-96385603D01*
X118823932Y-96320495D01*
X119179248Y-95965799D01*
X119371780Y-95502129D01*
X119372219Y-95000074D01*
X119180495Y-94536068D01*
X119019709Y-94375000D01*
X119380419Y-94375000D01*
X119380419Y-96125000D01*
X119407404Y-96268413D01*
X119492161Y-96400130D01*
X119621486Y-96488494D01*
X119775000Y-96519581D01*
X121525000Y-96519581D01*
X121668413Y-96492596D01*
X121800130Y-96407839D01*
X121888494Y-96278514D01*
X121919581Y-96125000D01*
X121919581Y-94375000D01*
X121892596Y-94231587D01*
X121807839Y-94099870D01*
X121678514Y-94011506D01*
X121525000Y-93980419D01*
X119775000Y-93980419D01*
X119631587Y-94007404D01*
X119499870Y-94092161D01*
X119411506Y-94221486D01*
X119380419Y-94375000D01*
X119019709Y-94375000D01*
X118825799Y-94180752D01*
X118362129Y-93988220D01*
X117860074Y-93987781D01*
X117396068Y-94179505D01*
X117040752Y-94534201D01*
X116848220Y-94997871D01*
X116847781Y-95499926D01*
X116586000Y-95499926D01*
X116586000Y-93001670D01*
X131375356Y-93001670D01*
X131501678Y-93307392D01*
X131735378Y-93541500D01*
X132040879Y-93668355D01*
X132371670Y-93668644D01*
X132677392Y-93542322D01*
X132911500Y-93308622D01*
X133038355Y-93003121D01*
X133038592Y-92732314D01*
X133753386Y-92017520D01*
X133895670Y-92017644D01*
X134201392Y-91891322D01*
X134435500Y-91657622D01*
X134562355Y-91352121D01*
X134562644Y-91021330D01*
X134436322Y-90715608D01*
X134202622Y-90481500D01*
X133897121Y-90354645D01*
X133566330Y-90354356D01*
X133260608Y-90480678D01*
X133026500Y-90714378D01*
X132899645Y-91019879D01*
X132899356Y-91350670D01*
X132918965Y-91398129D01*
X132311503Y-92005591D01*
X132042330Y-92005356D01*
X131736608Y-92131678D01*
X131502500Y-92365378D01*
X131375645Y-92670879D01*
X131375356Y-93001670D01*
X116586000Y-93001670D01*
X116586000Y-89916000D01*
X155702000Y-89916000D01*
X155702000Y-122682000D01*
X155702000Y-122682000D01*
G37*
X155702000Y-122682000D02*
X116586000Y-122682000D01*
X116586000Y-119172060D01*
X117227545Y-119172060D01*
X117310884Y-119425953D01*
X117875306Y-119631590D01*
X118475458Y-119605579D01*
X118909116Y-119425953D01*
X118992455Y-119172060D01*
X118110000Y-118289605D01*
X117227545Y-119172060D01*
X116586000Y-119172060D01*
X116586000Y-117875306D01*
X116588410Y-117875306D01*
X116614421Y-118475458D01*
X116794047Y-118909116D01*
X117047940Y-118992455D01*
X117930395Y-118110000D01*
X118289605Y-118110000D01*
X119172060Y-118992455D01*
X119425953Y-118909116D01*
X119514397Y-118666359D01*
X119579505Y-118823932D01*
X119934201Y-119179248D01*
X120397871Y-119371780D01*
X120899926Y-119372219D01*
X121363932Y-119180495D01*
X121719248Y-118825799D01*
X121752798Y-118745000D01*
X130804899Y-118745000D01*
X130900095Y-119223584D01*
X131171191Y-119629308D01*
X131576915Y-119900404D01*
X132055499Y-119995600D01*
X132104501Y-119995600D01*
X132583085Y-119900404D01*
X132988809Y-119629308D01*
X133259905Y-119223584D01*
X133355101Y-118745000D01*
X133259905Y-118266416D01*
X133002646Y-117881400D01*
X133361819Y-117881400D01*
X133361819Y-119608600D01*
X133388804Y-119752013D01*
X133473561Y-119883730D01*
X133602886Y-119972094D01*
X133756400Y-120003181D01*
X135483600Y-120003181D01*
X135627013Y-119976196D01*
X135758730Y-119891439D01*
X135847094Y-119762114D01*
X135878181Y-119608600D01*
X135878181Y-119544670D01*
X146742356Y-119544670D01*
X146868678Y-119850392D01*
X147102378Y-120084500D01*
X147407879Y-120211355D01*
X147738670Y-120211644D01*
X148044392Y-120085322D01*
X148236048Y-119894000D01*
X150368000Y-119894000D01*
X150564699Y-119854874D01*
X150731453Y-119743453D01*
X151741725Y-118733181D01*
X152501600Y-118733181D01*
X152645013Y-118706196D01*
X152776730Y-118621439D01*
X152865094Y-118492114D01*
X152896181Y-118338600D01*
X152896181Y-116611400D01*
X152869196Y-116467987D01*
X152784439Y-116336270D01*
X152655114Y-116247906D01*
X152501600Y-116216819D01*
X150774400Y-116216819D01*
X150630987Y-116243804D01*
X150499270Y-116328561D01*
X150410906Y-116457886D01*
X150379819Y-116611400D01*
X150379819Y-118338600D01*
X150406804Y-118482013D01*
X150458595Y-118562499D01*
X150155094Y-118866000D01*
X148235790Y-118866000D01*
X148045622Y-118675500D01*
X147740121Y-118548645D01*
X147409330Y-118548356D01*
X147103608Y-118674678D01*
X146869500Y-118908378D01*
X146742645Y-119213879D01*
X146742356Y-119544670D01*
X135878181Y-119544670D01*
X135878181Y-117881400D01*
X135851196Y-117737987D01*
X135766439Y-117606270D01*
X135637114Y-117517906D01*
X135483600Y-117486819D01*
X133756400Y-117486819D01*
X133612987Y-117513804D01*
X133481270Y-117598561D01*
X133392906Y-117727886D01*
X133361819Y-117881400D01*
X133002646Y-117881400D01*
X132988809Y-117860692D01*
X132583085Y-117589596D01*
X132104501Y-117494400D01*
X132055499Y-117494400D01*
X131576915Y-117589596D01*
X131171191Y-117860692D01*
X130900095Y-118266416D01*
X130804899Y-118745000D01*
X121752798Y-118745000D01*
X121911780Y-118362129D01*
X121912219Y-117860074D01*
X121753110Y-117475000D01*
X147822899Y-117475000D01*
X147918095Y-117953584D01*
X148189191Y-118359308D01*
X148594915Y-118630404D01*
X149073499Y-118725600D01*
X149122501Y-118725600D01*
X149601085Y-118630404D01*
X150006809Y-118359308D01*
X150277905Y-117953584D01*
X150373101Y-117475000D01*
X150277905Y-116996416D01*
X150006809Y-116590692D01*
X149601085Y-116319596D01*
X149122501Y-116224400D01*
X149073499Y-116224400D01*
X148594915Y-116319596D01*
X148189191Y-116590692D01*
X147918095Y-116996416D01*
X147822899Y-117475000D01*
X121753110Y-117475000D01*
X121720495Y-117396068D01*
X121365799Y-117040752D01*
X120902129Y-116848220D01*
X120400074Y-116847781D01*
X119936068Y-117039505D01*
X119580752Y-117394201D01*
X119520534Y-117539223D01*
X119425953Y-117310884D01*
X119172060Y-117227545D01*
X118289605Y-118110000D01*
X117930395Y-118110000D01*
X117047940Y-117227545D01*
X116794047Y-117310884D01*
X116588410Y-117875306D01*
X116586000Y-117875306D01*
X116586000Y-116632060D01*
X117227545Y-116632060D01*
X117295800Y-116840000D01*
X117227545Y-117047940D01*
X118110000Y-117930395D01*
X118992455Y-117047940D01*
X118924200Y-116840000D01*
X118992455Y-116632060D01*
X118110000Y-115749605D01*
X117227545Y-116632060D01*
X116586000Y-116632060D01*
X116586000Y-115335306D01*
X116588410Y-115335306D01*
X116614421Y-115935458D01*
X116794047Y-116369116D01*
X117047940Y-116452455D01*
X117930395Y-115570000D01*
X118289605Y-115570000D01*
X119172060Y-116452455D01*
X119425953Y-116369116D01*
X119514397Y-116126359D01*
X119579505Y-116283932D01*
X119934201Y-116639248D01*
X120397871Y-116831780D01*
X120899926Y-116832219D01*
X121363932Y-116640495D01*
X121719248Y-116285799D01*
X121752798Y-116205000D01*
X130804899Y-116205000D01*
X130900095Y-116683584D01*
X131171191Y-117089308D01*
X131576915Y-117360404D01*
X132055499Y-117455600D01*
X132104501Y-117455600D01*
X132583085Y-117360404D01*
X132988809Y-117089308D01*
X133259905Y-116683584D01*
X133350000Y-116230645D01*
X133440095Y-116683584D01*
X133711191Y-117089308D01*
X134116915Y-117360404D01*
X134595499Y-117455600D01*
X134644501Y-117455600D01*
X135123085Y-117360404D01*
X135528809Y-117089308D01*
X135799905Y-116683584D01*
X135895101Y-116205000D01*
X135799905Y-115726416D01*
X135528809Y-115320692D01*
X135123085Y-115049596D01*
X134644501Y-114954400D01*
X134595499Y-114954400D01*
X134116915Y-115049596D01*
X133711191Y-115320692D01*
X133440095Y-115726416D01*
X133350000Y-116179355D01*
X133259905Y-115726416D01*
X132988809Y-115320692D01*
X132583085Y-115049596D01*
X132104501Y-114954400D01*
X132055499Y-114954400D01*
X131576915Y-115049596D01*
X131171191Y-115320692D01*
X130900095Y-115726416D01*
X130804899Y-116205000D01*
X121752798Y-116205000D01*
X121911780Y-115822129D01*
X121912219Y-115320074D01*
X121720495Y-114856068D01*
X121365799Y-114500752D01*
X120902129Y-114308220D01*
X120400074Y-114307781D01*
X119936068Y-114499505D01*
X119580752Y-114854201D01*
X119520534Y-114999223D01*
X119425953Y-114770884D01*
X119172060Y-114687545D01*
X118289605Y-115570000D01*
X117930395Y-115570000D01*
X117047940Y-114687545D01*
X116794047Y-114770884D01*
X116588410Y-115335306D01*
X116586000Y-115335306D01*
X116586000Y-114092060D01*
X117227545Y-114092060D01*
X117295800Y-114300000D01*
X117227545Y-114507940D01*
X118110000Y-115390395D01*
X118992455Y-114507940D01*
X118924200Y-114300000D01*
X118992455Y-114092060D01*
X118110000Y-113209605D01*
X117227545Y-114092060D01*
X116586000Y-114092060D01*
X116586000Y-112795306D01*
X116588410Y-112795306D01*
X116614421Y-113395458D01*
X116794047Y-113829116D01*
X117047940Y-113912455D01*
X117930395Y-113030000D01*
X118289605Y-113030000D01*
X119172060Y-113912455D01*
X119425953Y-113829116D01*
X119514397Y-113586359D01*
X119579505Y-113743932D01*
X119934201Y-114099248D01*
X120397871Y-114291780D01*
X120899926Y-114292219D01*
X121363932Y-114100495D01*
X121719248Y-113745799D01*
X121752798Y-113665000D01*
X130804899Y-113665000D01*
X130900095Y-114143584D01*
X131171191Y-114549308D01*
X131576915Y-114820404D01*
X132055499Y-114915600D01*
X132104501Y-114915600D01*
X132583085Y-114820404D01*
X132988809Y-114549308D01*
X133259905Y-114143584D01*
X133350000Y-113690645D01*
X133440095Y-114143584D01*
X133711191Y-114549308D01*
X134116915Y-114820404D01*
X134595499Y-114915600D01*
X134644501Y-114915600D01*
X135123085Y-114820404D01*
X135528809Y-114549308D01*
X135799905Y-114143584D01*
X135895101Y-113665000D01*
X135799905Y-113186416D01*
X135550845Y-112813670D01*
X143440356Y-112813670D01*
X143566678Y-113119392D01*
X143758000Y-113311048D01*
X143758000Y-115416210D01*
X143567500Y-115606378D01*
X143440645Y-115911879D01*
X143440356Y-116242670D01*
X143566678Y-116548392D01*
X143800378Y-116782500D01*
X144105879Y-116909355D01*
X144436670Y-116909644D01*
X144742392Y-116783322D01*
X144976500Y-116549622D01*
X145103355Y-116244121D01*
X145103644Y-115913330D01*
X144977322Y-115607608D01*
X144786000Y-115415952D01*
X144786000Y-113310790D01*
X144976500Y-113120622D01*
X145103355Y-112815121D01*
X145103644Y-112484330D01*
X145066734Y-112395000D01*
X147822899Y-112395000D01*
X147918095Y-112873584D01*
X148189191Y-113279308D01*
X148594915Y-113550404D01*
X149073499Y-113645600D01*
X149122501Y-113645600D01*
X149601085Y-113550404D01*
X150006809Y-113279308D01*
X150249913Y-112915477D01*
X150355312Y-113169947D01*
X150749510Y-113601821D01*
X151132403Y-113781274D01*
X150729191Y-114050692D01*
X150458095Y-114456416D01*
X150368000Y-114909355D01*
X150277905Y-114456416D01*
X150006809Y-114050692D01*
X149601085Y-113779596D01*
X149122501Y-113684400D01*
X149073499Y-113684400D01*
X148594915Y-113779596D01*
X148189191Y-114050692D01*
X147918095Y-114456416D01*
X147822899Y-114935000D01*
X147918095Y-115413584D01*
X148189191Y-115819308D01*
X148594915Y-116090404D01*
X149073499Y-116185600D01*
X149122501Y-116185600D01*
X149601085Y-116090404D01*
X150006809Y-115819308D01*
X150277905Y-115413584D01*
X150368000Y-114960645D01*
X150458095Y-115413584D01*
X150729191Y-115819308D01*
X151134915Y-116090404D01*
X151613499Y-116185600D01*
X151662501Y-116185600D01*
X152141085Y-116090404D01*
X152546809Y-115819308D01*
X152817905Y-115413584D01*
X152913101Y-114935000D01*
X152817905Y-114456416D01*
X152546809Y-114050692D01*
X152143597Y-113781274D01*
X152526490Y-113601821D01*
X152920688Y-113169947D01*
X153092958Y-112754026D01*
X152971817Y-112522000D01*
X151765000Y-112522000D01*
X151765000Y-112542000D01*
X151511000Y-112542000D01*
X151511000Y-112522000D01*
X151491000Y-112522000D01*
X151491000Y-112268000D01*
X151511000Y-112268000D01*
X151511000Y-111060531D01*
X151765000Y-111060531D01*
X151765000Y-112268000D01*
X152971817Y-112268000D01*
X153092958Y-112035974D01*
X152920688Y-111620053D01*
X152526490Y-111188179D01*
X151997027Y-110940032D01*
X151765000Y-111060531D01*
X151511000Y-111060531D01*
X151278973Y-110940032D01*
X150749510Y-111188179D01*
X150355312Y-111620053D01*
X150249913Y-111874523D01*
X150006809Y-111510692D01*
X149601085Y-111239596D01*
X149122501Y-111144400D01*
X149073499Y-111144400D01*
X148594915Y-111239596D01*
X148189191Y-111510692D01*
X147918095Y-111916416D01*
X147822899Y-112395000D01*
X145066734Y-112395000D01*
X144977322Y-112178608D01*
X144743622Y-111944500D01*
X144438121Y-111817645D01*
X144107330Y-111817356D01*
X143801608Y-111943678D01*
X143567500Y-112177378D01*
X143440645Y-112482879D01*
X143440356Y-112813670D01*
X135550845Y-112813670D01*
X135528809Y-112780692D01*
X135123085Y-112509596D01*
X134644501Y-112414400D01*
X134595499Y-112414400D01*
X134116915Y-112509596D01*
X133711191Y-112780692D01*
X133440095Y-113186416D01*
X133350000Y-113639355D01*
X133259905Y-113186416D01*
X132988809Y-112780692D01*
X132583085Y-112509596D01*
X132104501Y-112414400D01*
X132055499Y-112414400D01*
X131576915Y-112509596D01*
X131171191Y-112780692D01*
X130900095Y-113186416D01*
X130804899Y-113665000D01*
X121752798Y-113665000D01*
X121911780Y-113282129D01*
X121912219Y-112780074D01*
X121720495Y-112316068D01*
X121365799Y-111960752D01*
X120902129Y-111768220D01*
X120400074Y-111767781D01*
X119936068Y-111959505D01*
X119580752Y-112314201D01*
X119520534Y-112459223D01*
X119425953Y-112230884D01*
X119172060Y-112147545D01*
X118289605Y-113030000D01*
X117930395Y-113030000D01*
X117047940Y-112147545D01*
X116794047Y-112230884D01*
X116588410Y-112795306D01*
X116586000Y-112795306D01*
X116586000Y-111552060D01*
X117227545Y-111552060D01*
X117295800Y-111760000D01*
X117227545Y-111967940D01*
X118110000Y-112850395D01*
X118992455Y-111967940D01*
X118924200Y-111760000D01*
X118992455Y-111552060D01*
X118110000Y-110669605D01*
X117227545Y-111552060D01*
X116586000Y-111552060D01*
X116586000Y-110255306D01*
X116588410Y-110255306D01*
X116614421Y-110855458D01*
X116794047Y-111289116D01*
X117047940Y-111372455D01*
X117930395Y-110490000D01*
X118289605Y-110490000D01*
X119172060Y-111372455D01*
X119425953Y-111289116D01*
X119514397Y-111046359D01*
X119579505Y-111203932D01*
X119934201Y-111559248D01*
X120397871Y-111751780D01*
X120899926Y-111752219D01*
X121363932Y-111560495D01*
X121553141Y-111371616D01*
X124871895Y-111371616D01*
X124963655Y-111593692D01*
X125133415Y-111763748D01*
X125355330Y-111855895D01*
X125595616Y-111856105D01*
X125817692Y-111764345D01*
X125841478Y-111740600D01*
X129428307Y-111740600D01*
X129451415Y-111763748D01*
X129673330Y-111855895D01*
X129913616Y-111856105D01*
X130135692Y-111764345D01*
X130305748Y-111594585D01*
X130397895Y-111372670D01*
X130398105Y-111132384D01*
X130306345Y-110910308D01*
X130136585Y-110740252D01*
X129914670Y-110648105D01*
X129674384Y-110647895D01*
X129452308Y-110739655D01*
X129428522Y-110763400D01*
X128810476Y-110763400D01*
X128873895Y-110610670D01*
X128874105Y-110370384D01*
X128782345Y-110148308D01*
X128612585Y-109978252D01*
X128390670Y-109886105D01*
X128357060Y-109886076D01*
X127858076Y-109387092D01*
X127858105Y-109354384D01*
X127766345Y-109132308D01*
X127596585Y-108962252D01*
X127374670Y-108870105D01*
X127134384Y-108869895D01*
X126912308Y-108961655D01*
X126742252Y-109131415D01*
X126650105Y-109353330D01*
X126649895Y-109593616D01*
X126741655Y-109815692D01*
X126911415Y-109985748D01*
X127133330Y-110077895D01*
X127166940Y-110077924D01*
X127665924Y-110576908D01*
X127665895Y-110609616D01*
X127729437Y-110763400D01*
X125841693Y-110763400D01*
X125818585Y-110740252D01*
X125596670Y-110648105D01*
X125356384Y-110647895D01*
X125134308Y-110739655D01*
X124964252Y-110909415D01*
X124872105Y-111131330D01*
X124871895Y-111371616D01*
X121553141Y-111371616D01*
X121719248Y-111205799D01*
X121911780Y-110742129D01*
X121912219Y-110240074D01*
X121720495Y-109776068D01*
X121365799Y-109420752D01*
X120902129Y-109228220D01*
X120400074Y-109227781D01*
X119936068Y-109419505D01*
X119580752Y-109774201D01*
X119520534Y-109919223D01*
X119425953Y-109690884D01*
X119172060Y-109607545D01*
X118289605Y-110490000D01*
X117930395Y-110490000D01*
X117047940Y-109607545D01*
X116794047Y-109690884D01*
X116588410Y-110255306D01*
X116586000Y-110255306D01*
X116586000Y-109012060D01*
X117227545Y-109012060D01*
X117295800Y-109220000D01*
X117227545Y-109427940D01*
X118110000Y-110310395D01*
X118992455Y-109427940D01*
X118924200Y-109220000D01*
X118992455Y-109012060D01*
X118110000Y-108129605D01*
X117227545Y-109012060D01*
X116586000Y-109012060D01*
X116586000Y-107715306D01*
X116588410Y-107715306D01*
X116614421Y-108315458D01*
X116794047Y-108749116D01*
X117047940Y-108832455D01*
X117930395Y-107950000D01*
X118289605Y-107950000D01*
X119172060Y-108832455D01*
X119425953Y-108749116D01*
X119514397Y-108506359D01*
X119579505Y-108663932D01*
X119934201Y-109019248D01*
X120397871Y-109211780D01*
X120899926Y-109212219D01*
X121363932Y-109020495D01*
X121719248Y-108665799D01*
X121752798Y-108585000D01*
X130804899Y-108585000D01*
X130900095Y-109063584D01*
X131171191Y-109469308D01*
X131576915Y-109740404D01*
X132055499Y-109835600D01*
X132104501Y-109835600D01*
X132583085Y-109740404D01*
X132988809Y-109469308D01*
X133231913Y-109105477D01*
X133337312Y-109359947D01*
X133731510Y-109791821D01*
X134114403Y-109971274D01*
X133711191Y-110240692D01*
X133440095Y-110646416D01*
X133350000Y-111099355D01*
X133259905Y-110646416D01*
X132988809Y-110240692D01*
X132583085Y-109969596D01*
X132104501Y-109874400D01*
X132055499Y-109874400D01*
X131576915Y-109969596D01*
X131171191Y-110240692D01*
X130900095Y-110646416D01*
X130804899Y-111125000D01*
X130900095Y-111603584D01*
X131171191Y-112009308D01*
X131576915Y-112280404D01*
X132055499Y-112375600D01*
X132104501Y-112375600D01*
X132583085Y-112280404D01*
X132988809Y-112009308D01*
X133259905Y-111603584D01*
X133350000Y-111150645D01*
X133440095Y-111603584D01*
X133711191Y-112009308D01*
X134116915Y-112280404D01*
X134595499Y-112375600D01*
X134644501Y-112375600D01*
X135123085Y-112280404D01*
X135528809Y-112009308D01*
X135799905Y-111603584D01*
X135895101Y-111125000D01*
X135799905Y-110646416D01*
X135528809Y-110240692D01*
X135125597Y-109971274D01*
X135508490Y-109791821D01*
X135902688Y-109359947D01*
X136074958Y-108944026D01*
X135953817Y-108712000D01*
X134747000Y-108712000D01*
X134747000Y-108732000D01*
X134493000Y-108732000D01*
X134493000Y-108712000D01*
X134473000Y-108712000D01*
X134473000Y-108458000D01*
X134493000Y-108458000D01*
X134493000Y-107250531D01*
X134747000Y-107250531D01*
X134747000Y-108458000D01*
X135953817Y-108458000D01*
X136074958Y-108225974D01*
X135902688Y-107810053D01*
X135508490Y-107378179D01*
X134979027Y-107130032D01*
X134747000Y-107250531D01*
X134493000Y-107250531D01*
X134260973Y-107130032D01*
X133731510Y-107378179D01*
X133337312Y-107810053D01*
X133231913Y-108064523D01*
X132988809Y-107700692D01*
X132583085Y-107429596D01*
X132104501Y-107334400D01*
X132055499Y-107334400D01*
X131576915Y-107429596D01*
X131171191Y-107700692D01*
X130900095Y-108106416D01*
X130804899Y-108585000D01*
X121752798Y-108585000D01*
X121911780Y-108202129D01*
X121911895Y-108069616D01*
X123855895Y-108069616D01*
X123947655Y-108291692D01*
X124117415Y-108461748D01*
X124339330Y-108553895D01*
X124579616Y-108554105D01*
X124801692Y-108462345D01*
X124971748Y-108292585D01*
X125063895Y-108070670D01*
X125064105Y-107830384D01*
X125050215Y-107796769D01*
X125562908Y-107284076D01*
X125595616Y-107284105D01*
X125817692Y-107192345D01*
X125987748Y-107022585D01*
X126079895Y-106800670D01*
X126080105Y-106560384D01*
X125988345Y-106338308D01*
X125818585Y-106168252D01*
X125596670Y-106076105D01*
X125356384Y-106075895D01*
X125134308Y-106167655D01*
X124964252Y-106337415D01*
X124872105Y-106559330D01*
X124872076Y-106592940D01*
X124114508Y-107350508D01*
X124008592Y-107509020D01*
X124008592Y-107509021D01*
X123999121Y-107556634D01*
X123948252Y-107607415D01*
X123856105Y-107829330D01*
X123855895Y-108069616D01*
X121911895Y-108069616D01*
X121912219Y-107700074D01*
X121720495Y-107236068D01*
X121365799Y-106880752D01*
X120902129Y-106688220D01*
X120400074Y-106687781D01*
X119936068Y-106879505D01*
X119580752Y-107234201D01*
X119520534Y-107379223D01*
X119425953Y-107150884D01*
X119172060Y-107067545D01*
X118289605Y-107950000D01*
X117930395Y-107950000D01*
X117047940Y-107067545D01*
X116794047Y-107150884D01*
X116588410Y-107715306D01*
X116586000Y-107715306D01*
X116586000Y-106472060D01*
X117227545Y-106472060D01*
X117295800Y-106680000D01*
X117227545Y-106887940D01*
X118110000Y-107770395D01*
X118992455Y-106887940D01*
X118924200Y-106680000D01*
X118992455Y-106472060D01*
X118110000Y-105589605D01*
X117227545Y-106472060D01*
X116586000Y-106472060D01*
X116586000Y-105175306D01*
X116588410Y-105175306D01*
X116614421Y-105775458D01*
X116794047Y-106209116D01*
X117047940Y-106292455D01*
X117930395Y-105410000D01*
X118289605Y-105410000D01*
X119172060Y-106292455D01*
X119425953Y-106209116D01*
X119514397Y-105966359D01*
X119579505Y-106123932D01*
X119934201Y-106479248D01*
X120397871Y-106671780D01*
X120899926Y-106672219D01*
X121363932Y-106480495D01*
X121719248Y-106125799D01*
X121911780Y-105662129D01*
X121912117Y-105275616D01*
X136047895Y-105275616D01*
X136139655Y-105497692D01*
X136309415Y-105667748D01*
X136531330Y-105759895D01*
X136564940Y-105759924D01*
X137063924Y-106258908D01*
X137063895Y-106291616D01*
X137155655Y-106513692D01*
X137325415Y-106683748D01*
X137547330Y-106775895D01*
X137787616Y-106776105D01*
X138009692Y-106684345D01*
X138179748Y-106514585D01*
X138271895Y-106292670D01*
X138272105Y-106052384D01*
X138180345Y-105830308D01*
X138119170Y-105769026D01*
X138880042Y-105769026D01*
X139052312Y-106184947D01*
X139446510Y-106616821D01*
X139975973Y-106864968D01*
X140208000Y-106744469D01*
X140208000Y-105537000D01*
X139001183Y-105537000D01*
X138880042Y-105769026D01*
X138119170Y-105769026D01*
X138010585Y-105660252D01*
X137788670Y-105568105D01*
X137755060Y-105568076D01*
X137256076Y-105069092D01*
X137256105Y-105036384D01*
X137164345Y-104814308D01*
X136994585Y-104644252D01*
X136772670Y-104552105D01*
X136532384Y-104551895D01*
X136310308Y-104643655D01*
X136140252Y-104813415D01*
X136048105Y-105035330D01*
X136047895Y-105275616D01*
X121912117Y-105275616D01*
X121912219Y-105160074D01*
X121720495Y-104696068D01*
X121365799Y-104340752D01*
X120902129Y-104148220D01*
X120400074Y-104147781D01*
X119936068Y-104339505D01*
X119580752Y-104694201D01*
X119520534Y-104839223D01*
X119425953Y-104610884D01*
X119172060Y-104527545D01*
X118289605Y-105410000D01*
X117930395Y-105410000D01*
X117047940Y-104527545D01*
X116794047Y-104610884D01*
X116588410Y-105175306D01*
X116586000Y-105175306D01*
X116586000Y-103932060D01*
X117227545Y-103932060D01*
X117295800Y-104140000D01*
X117227545Y-104347940D01*
X118110000Y-105230395D01*
X118992455Y-104347940D01*
X118924200Y-104140000D01*
X118992455Y-103932060D01*
X118110000Y-103049605D01*
X117227545Y-103932060D01*
X116586000Y-103932060D01*
X116586000Y-102635306D01*
X116588410Y-102635306D01*
X116614421Y-103235458D01*
X116794047Y-103669116D01*
X117047940Y-103752455D01*
X117930395Y-102870000D01*
X118289605Y-102870000D01*
X119172060Y-103752455D01*
X119425953Y-103669116D01*
X119514397Y-103426359D01*
X119579505Y-103583932D01*
X119934201Y-103939248D01*
X120397871Y-104131780D01*
X120899926Y-104132219D01*
X121363932Y-103940495D01*
X121719248Y-103585799D01*
X121911780Y-103122129D01*
X121912219Y-102620074D01*
X121720495Y-102156068D01*
X121365799Y-101800752D01*
X120902129Y-101608220D01*
X120400074Y-101607781D01*
X119936068Y-101799505D01*
X119580752Y-102154201D01*
X119520534Y-102299223D01*
X119425953Y-102070884D01*
X119172060Y-101987545D01*
X118289605Y-102870000D01*
X117930395Y-102870000D01*
X117047940Y-101987545D01*
X116794047Y-102070884D01*
X116588410Y-102635306D01*
X116586000Y-102635306D01*
X116586000Y-101392060D01*
X117227545Y-101392060D01*
X117295800Y-101600000D01*
X117227545Y-101807940D01*
X118110000Y-102690395D01*
X118992455Y-101807940D01*
X118924200Y-101600000D01*
X118992455Y-101392060D01*
X118110000Y-100509605D01*
X117227545Y-101392060D01*
X116586000Y-101392060D01*
X116586000Y-100095306D01*
X116588410Y-100095306D01*
X116614421Y-100695458D01*
X116794047Y-101129116D01*
X117047940Y-101212455D01*
X117930395Y-100330000D01*
X118289605Y-100330000D01*
X119172060Y-101212455D01*
X119425953Y-101129116D01*
X119514397Y-100886359D01*
X119579505Y-101043932D01*
X119934201Y-101399248D01*
X120397871Y-101591780D01*
X120899926Y-101592219D01*
X121363932Y-101400495D01*
X121719248Y-101045799D01*
X121911780Y-100582129D01*
X121912219Y-100080074D01*
X121720495Y-99616068D01*
X121538362Y-99433616D01*
X128173895Y-99433616D01*
X128265655Y-99655692D01*
X128435415Y-99825748D01*
X128657330Y-99917895D01*
X128897616Y-99918105D01*
X129119692Y-99826345D01*
X129143478Y-99802600D01*
X132476307Y-99802600D01*
X132499415Y-99825748D01*
X132721330Y-99917895D01*
X132961616Y-99918105D01*
X133183692Y-99826345D01*
X133353748Y-99656585D01*
X133445895Y-99434670D01*
X133446105Y-99194384D01*
X133354345Y-98972308D01*
X133184585Y-98802252D01*
X132962670Y-98710105D01*
X132722384Y-98709895D01*
X132500308Y-98801655D01*
X132476522Y-98825400D01*
X129143693Y-98825400D01*
X129120585Y-98802252D01*
X128898670Y-98710105D01*
X128658384Y-98709895D01*
X128436308Y-98801655D01*
X128266252Y-98971415D01*
X128174105Y-99193330D01*
X128173895Y-99433616D01*
X121538362Y-99433616D01*
X121365799Y-99260752D01*
X120902129Y-99068220D01*
X120400074Y-99067781D01*
X119936068Y-99259505D01*
X119580752Y-99614201D01*
X119520534Y-99759223D01*
X119425953Y-99530884D01*
X119172060Y-99447545D01*
X118289605Y-100330000D01*
X117930395Y-100330000D01*
X117047940Y-99447545D01*
X116794047Y-99530884D01*
X116588410Y-100095306D01*
X116586000Y-100095306D01*
X116586000Y-98852060D01*
X117227545Y-98852060D01*
X117295800Y-99060000D01*
X117227545Y-99267940D01*
X118110000Y-100150395D01*
X118992455Y-99267940D01*
X118924200Y-99060000D01*
X118992455Y-98852060D01*
X118110000Y-97969605D01*
X117227545Y-98852060D01*
X116586000Y-98852060D01*
X116586000Y-97555306D01*
X116588410Y-97555306D01*
X116614421Y-98155458D01*
X116794047Y-98589116D01*
X117047940Y-98672455D01*
X117930395Y-97790000D01*
X118289605Y-97790000D01*
X119172060Y-98672455D01*
X119425953Y-98589116D01*
X119514397Y-98346359D01*
X119579505Y-98503932D01*
X119934201Y-98859248D01*
X120397871Y-99051780D01*
X120899926Y-99052219D01*
X121363932Y-98860495D01*
X121719248Y-98505799D01*
X121911780Y-98042129D01*
X121912117Y-97655616D01*
X138079895Y-97655616D01*
X138171655Y-97877692D01*
X138195400Y-97901478D01*
X138195400Y-98552000D01*
X138220662Y-98679000D01*
X138232592Y-98738980D01*
X138338508Y-98897492D01*
X138846507Y-99405492D01*
X138906671Y-99445692D01*
X139005021Y-99511408D01*
X139078761Y-99526076D01*
X139052312Y-99555053D01*
X138880042Y-99970974D01*
X139001183Y-100203000D01*
X140208000Y-100203000D01*
X140208000Y-100183000D01*
X140462000Y-100183000D01*
X140462000Y-100203000D01*
X140482000Y-100203000D01*
X140482000Y-100457000D01*
X140462000Y-100457000D01*
X140462000Y-100477000D01*
X140208000Y-100477000D01*
X140208000Y-100457000D01*
X139001183Y-100457000D01*
X138880042Y-100689026D01*
X139052312Y-101104947D01*
X139446510Y-101536821D01*
X139829403Y-101716274D01*
X139426191Y-101985692D01*
X139155095Y-102391416D01*
X139059899Y-102870000D01*
X139155095Y-103348584D01*
X139426191Y-103754308D01*
X139829403Y-104023726D01*
X139446510Y-104203179D01*
X139052312Y-104635053D01*
X138880042Y-105050974D01*
X139001183Y-105283000D01*
X140208000Y-105283000D01*
X140208000Y-105263000D01*
X140462000Y-105263000D01*
X140462000Y-105283000D01*
X140482000Y-105283000D01*
X140482000Y-105537000D01*
X140462000Y-105537000D01*
X140462000Y-106744469D01*
X140694027Y-106864968D01*
X141223490Y-106616821D01*
X141617688Y-106184947D01*
X141723087Y-105930477D01*
X141966191Y-106294308D01*
X142371915Y-106565404D01*
X142850499Y-106660600D01*
X142899501Y-106660600D01*
X143378085Y-106565404D01*
X143783809Y-106294308D01*
X144054905Y-105888584D01*
X144139000Y-105465809D01*
X144139000Y-105891210D01*
X143948500Y-106081378D01*
X143821645Y-106386879D01*
X143821356Y-106717670D01*
X143947678Y-107023392D01*
X144181378Y-107257500D01*
X144486879Y-107384355D01*
X144817670Y-107384644D01*
X145123392Y-107258322D01*
X145357500Y-107024622D01*
X145484355Y-106719121D01*
X145484644Y-106388330D01*
X145358322Y-106082608D01*
X145167000Y-105890952D01*
X145167000Y-103751616D01*
X145953895Y-103751616D01*
X146045655Y-103973692D01*
X146215415Y-104143748D01*
X146437330Y-104235895D01*
X146677616Y-104236105D01*
X146899692Y-104144345D01*
X146923478Y-104120600D01*
X149748307Y-104120600D01*
X149771415Y-104143748D01*
X149993330Y-104235895D01*
X150233616Y-104236105D01*
X150455692Y-104144345D01*
X150625748Y-103974585D01*
X150717895Y-103752670D01*
X150718105Y-103512384D01*
X150626345Y-103290308D01*
X150456585Y-103120252D01*
X150234670Y-103028105D01*
X149994384Y-103027895D01*
X149772308Y-103119655D01*
X149748522Y-103143400D01*
X146923693Y-103143400D01*
X146900585Y-103120252D01*
X146678670Y-103028105D01*
X146438384Y-103027895D01*
X146216308Y-103119655D01*
X146046252Y-103289415D01*
X145954105Y-103511330D01*
X145953895Y-103751616D01*
X145167000Y-103751616D01*
X145167000Y-102642790D01*
X145357500Y-102452622D01*
X145484355Y-102147121D01*
X145484644Y-101816330D01*
X145358322Y-101510608D01*
X145124622Y-101276500D01*
X144819121Y-101149645D01*
X144488330Y-101149356D01*
X144182608Y-101275678D01*
X143948500Y-101509378D01*
X143821645Y-101814879D01*
X143821447Y-102042021D01*
X143783809Y-101985692D01*
X143378085Y-101714596D01*
X142899501Y-101619400D01*
X142850499Y-101619400D01*
X142371915Y-101714596D01*
X141966191Y-101985692D01*
X141695095Y-102391416D01*
X141605000Y-102844355D01*
X141514905Y-102391416D01*
X141243809Y-101985692D01*
X140840597Y-101716274D01*
X141223490Y-101536821D01*
X141617688Y-101104947D01*
X141723087Y-100850477D01*
X141966191Y-101214308D01*
X142371915Y-101485404D01*
X142850499Y-101580600D01*
X142899501Y-101580600D01*
X143378085Y-101485404D01*
X143783809Y-101214308D01*
X144054905Y-100808584D01*
X144150101Y-100330000D01*
X144054905Y-99851416D01*
X143805845Y-99478670D01*
X144202356Y-99478670D01*
X144328678Y-99784392D01*
X144562378Y-100018500D01*
X144867879Y-100145355D01*
X145198670Y-100145644D01*
X145335996Y-100088902D01*
X145726591Y-100479497D01*
X145726356Y-100748670D01*
X145852678Y-101054392D01*
X146086378Y-101288500D01*
X146391879Y-101415355D01*
X146722670Y-101415644D01*
X147028392Y-101289322D01*
X147262500Y-101055622D01*
X147389355Y-100750121D01*
X147389644Y-100419330D01*
X147263322Y-100113608D01*
X147029622Y-99879500D01*
X146724121Y-99752645D01*
X146453314Y-99752408D01*
X145865631Y-99164725D01*
X145865644Y-99149330D01*
X145739322Y-98843608D01*
X145505622Y-98609500D01*
X145200121Y-98482645D01*
X144869330Y-98482356D01*
X144563608Y-98608678D01*
X144329500Y-98842378D01*
X144202645Y-99147879D01*
X144202356Y-99478670D01*
X143805845Y-99478670D01*
X143783809Y-99445692D01*
X143378085Y-99174596D01*
X142899501Y-99079400D01*
X142850499Y-99079400D01*
X142371915Y-99174596D01*
X142180466Y-99302518D01*
X142510094Y-98972890D01*
X142850499Y-99040600D01*
X142899501Y-99040600D01*
X143378085Y-98945404D01*
X143783809Y-98674308D01*
X144054905Y-98268584D01*
X144150101Y-97790000D01*
X144054905Y-97311416D01*
X143890703Y-97065670D01*
X146488356Y-97065670D01*
X146614678Y-97371392D01*
X146806000Y-97563048D01*
X146806000Y-98017210D01*
X146615500Y-98207378D01*
X146488645Y-98512879D01*
X146488356Y-98843670D01*
X146614678Y-99149392D01*
X146848378Y-99383500D01*
X147153879Y-99510355D01*
X147484670Y-99510644D01*
X147790392Y-99384322D01*
X148024500Y-99150622D01*
X148151355Y-98845121D01*
X148151644Y-98514330D01*
X148025322Y-98208608D01*
X147834000Y-98016952D01*
X147834000Y-97562790D01*
X148024500Y-97372622D01*
X148151355Y-97067121D01*
X148151538Y-96857269D01*
X148423879Y-96970355D01*
X148754670Y-96970644D01*
X149060392Y-96844322D01*
X149294500Y-96610622D01*
X149421355Y-96305121D01*
X149421644Y-95974330D01*
X149295322Y-95668608D01*
X149104000Y-95476952D01*
X149104000Y-94895790D01*
X149294500Y-94705622D01*
X149421355Y-94400121D01*
X149421644Y-94069330D01*
X149295322Y-93763608D01*
X149061622Y-93529500D01*
X148756121Y-93402645D01*
X148425330Y-93402356D01*
X148119608Y-93528678D01*
X147885500Y-93762378D01*
X147758645Y-94067879D01*
X147758356Y-94398670D01*
X147884678Y-94704392D01*
X148076000Y-94896048D01*
X148076000Y-95477210D01*
X147885500Y-95667378D01*
X147758645Y-95972879D01*
X147758462Y-96182731D01*
X147486121Y-96069645D01*
X147155330Y-96069356D01*
X146849608Y-96195678D01*
X146615500Y-96429378D01*
X146488645Y-96734879D01*
X146488356Y-97065670D01*
X143890703Y-97065670D01*
X143783809Y-96905692D01*
X143378085Y-96634596D01*
X142899501Y-96539400D01*
X142850499Y-96539400D01*
X142371915Y-96634596D01*
X141966191Y-96905692D01*
X141723087Y-97269523D01*
X141617688Y-97015053D01*
X141223490Y-96583179D01*
X141063469Y-96508181D01*
X141198600Y-96508181D01*
X141342013Y-96481196D01*
X141473730Y-96396439D01*
X141562094Y-96267114D01*
X141593181Y-96113600D01*
X141593181Y-95250000D01*
X141599899Y-95250000D01*
X141695095Y-95728584D01*
X141966191Y-96134308D01*
X142371915Y-96405404D01*
X142850499Y-96500600D01*
X142899501Y-96500600D01*
X143378085Y-96405404D01*
X143783809Y-96134308D01*
X144054905Y-95728584D01*
X144150101Y-95250000D01*
X144054905Y-94771416D01*
X143783809Y-94365692D01*
X143378085Y-94094596D01*
X142899501Y-93999400D01*
X142850499Y-93999400D01*
X142371915Y-94094596D01*
X141966191Y-94365692D01*
X141695095Y-94771416D01*
X141599899Y-95250000D01*
X141593181Y-95250000D01*
X141593181Y-94386400D01*
X141566196Y-94242987D01*
X141481439Y-94111270D01*
X141352114Y-94022906D01*
X141198600Y-93991819D01*
X140849000Y-93991819D01*
X140849000Y-92687779D01*
X140932392Y-92653322D01*
X141166500Y-92419622D01*
X141293355Y-92114121D01*
X141293644Y-91783330D01*
X141234594Y-91640416D01*
X145382825Y-91640416D01*
X145536568Y-92012503D01*
X145821000Y-92297431D01*
X146192818Y-92451824D01*
X146595416Y-92452175D01*
X146967503Y-92298432D01*
X147252431Y-92014000D01*
X147370984Y-91728494D01*
X147520357Y-92090006D01*
X147843294Y-92413507D01*
X148265447Y-92588800D01*
X148722547Y-92589199D01*
X149145006Y-92414643D01*
X149468507Y-92091706D01*
X149494848Y-92028270D01*
X149520357Y-92090006D01*
X149843294Y-92413507D01*
X150265447Y-92588800D01*
X150722547Y-92589199D01*
X151145006Y-92414643D01*
X151468507Y-92091706D01*
X151494848Y-92028270D01*
X151520357Y-92090006D01*
X151843294Y-92413507D01*
X152265447Y-92588800D01*
X152722547Y-92589199D01*
X153145006Y-92414643D01*
X153468507Y-92091706D01*
X153619272Y-91728624D01*
X153736568Y-92012503D01*
X154021000Y-92297431D01*
X154392818Y-92451824D01*
X154795416Y-92452175D01*
X155167503Y-92298432D01*
X155452431Y-92014000D01*
X155606824Y-91642182D01*
X155607175Y-91239584D01*
X155453432Y-90867497D01*
X155169000Y-90582569D01*
X154797182Y-90428176D01*
X154394584Y-90427825D01*
X154022497Y-90581568D01*
X153737569Y-90866000D01*
X153619016Y-91151506D01*
X153469643Y-90789994D01*
X153146706Y-90466493D01*
X152724553Y-90291200D01*
X152267453Y-90290801D01*
X151844994Y-90465357D01*
X151521493Y-90788294D01*
X151495152Y-90851730D01*
X151469643Y-90789994D01*
X151146706Y-90466493D01*
X150724553Y-90291200D01*
X150267453Y-90290801D01*
X149844994Y-90465357D01*
X149521493Y-90788294D01*
X149495152Y-90851730D01*
X149469643Y-90789994D01*
X149146706Y-90466493D01*
X148724553Y-90291200D01*
X148267453Y-90290801D01*
X147844994Y-90465357D01*
X147521493Y-90788294D01*
X147370728Y-91151376D01*
X147253432Y-90867497D01*
X146969000Y-90582569D01*
X146597182Y-90428176D01*
X146194584Y-90427825D01*
X145822497Y-90581568D01*
X145537569Y-90866000D01*
X145383176Y-91237818D01*
X145382825Y-91640416D01*
X141234594Y-91640416D01*
X141167322Y-91477608D01*
X140933622Y-91243500D01*
X140628121Y-91116645D01*
X140297330Y-91116356D01*
X139991608Y-91242678D01*
X139757500Y-91476378D01*
X139630645Y-91781879D01*
X139630356Y-92112670D01*
X139756678Y-92418392D01*
X139821000Y-92482826D01*
X139821000Y-93991819D01*
X139471400Y-93991819D01*
X139327987Y-94018804D01*
X139196270Y-94103561D01*
X139107906Y-94232886D01*
X139076819Y-94386400D01*
X139076819Y-96113600D01*
X139103804Y-96257013D01*
X139188561Y-96388730D01*
X139317886Y-96477094D01*
X139471400Y-96508181D01*
X139606531Y-96508181D01*
X139446510Y-96583179D01*
X139052312Y-97015053D01*
X139042075Y-97039769D01*
X139026585Y-97024252D01*
X138804670Y-96932105D01*
X138564384Y-96931895D01*
X138342308Y-97023655D01*
X138172252Y-97193415D01*
X138080105Y-97415330D01*
X138079895Y-97655616D01*
X121912117Y-97655616D01*
X121912219Y-97540074D01*
X121720495Y-97076068D01*
X121365799Y-96720752D01*
X120902129Y-96528220D01*
X120400074Y-96527781D01*
X119936068Y-96719505D01*
X119580752Y-97074201D01*
X119520534Y-97219223D01*
X119425953Y-96990884D01*
X119172060Y-96907545D01*
X118289605Y-97790000D01*
X117930395Y-97790000D01*
X117047940Y-96907545D01*
X116794047Y-96990884D01*
X116588410Y-97555306D01*
X116586000Y-97555306D01*
X116586000Y-95499926D01*
X116847781Y-95499926D01*
X117039505Y-95963932D01*
X117394201Y-96319248D01*
X117539223Y-96379466D01*
X117310884Y-96474047D01*
X117227545Y-96727940D01*
X118110000Y-97610395D01*
X118992455Y-96727940D01*
X118909116Y-96474047D01*
X118666359Y-96385603D01*
X118823932Y-96320495D01*
X119179248Y-95965799D01*
X119371780Y-95502129D01*
X119372219Y-95000074D01*
X119180495Y-94536068D01*
X119019709Y-94375000D01*
X119380419Y-94375000D01*
X119380419Y-96125000D01*
X119407404Y-96268413D01*
X119492161Y-96400130D01*
X119621486Y-96488494D01*
X119775000Y-96519581D01*
X121525000Y-96519581D01*
X121668413Y-96492596D01*
X121800130Y-96407839D01*
X121888494Y-96278514D01*
X121919581Y-96125000D01*
X121919581Y-94375000D01*
X121892596Y-94231587D01*
X121807839Y-94099870D01*
X121678514Y-94011506D01*
X121525000Y-93980419D01*
X119775000Y-93980419D01*
X119631587Y-94007404D01*
X119499870Y-94092161D01*
X119411506Y-94221486D01*
X119380419Y-94375000D01*
X119019709Y-94375000D01*
X118825799Y-94180752D01*
X118362129Y-93988220D01*
X117860074Y-93987781D01*
X117396068Y-94179505D01*
X117040752Y-94534201D01*
X116848220Y-94997871D01*
X116847781Y-95499926D01*
X116586000Y-95499926D01*
X116586000Y-93001670D01*
X131375356Y-93001670D01*
X131501678Y-93307392D01*
X131735378Y-93541500D01*
X132040879Y-93668355D01*
X132371670Y-93668644D01*
X132677392Y-93542322D01*
X132911500Y-93308622D01*
X133038355Y-93003121D01*
X133038592Y-92732314D01*
X133753386Y-92017520D01*
X133895670Y-92017644D01*
X134201392Y-91891322D01*
X134435500Y-91657622D01*
X134562355Y-91352121D01*
X134562644Y-91021330D01*
X134436322Y-90715608D01*
X134202622Y-90481500D01*
X133897121Y-90354645D01*
X133566330Y-90354356D01*
X133260608Y-90480678D01*
X133026500Y-90714378D01*
X132899645Y-91019879D01*
X132899356Y-91350670D01*
X132918965Y-91398129D01*
X132311503Y-92005591D01*
X132042330Y-92005356D01*
X131736608Y-92131678D01*
X131502500Y-92365378D01*
X131375645Y-92670879D01*
X131375356Y-93001670D01*
X116586000Y-93001670D01*
X116586000Y-89916000D01*
X155702000Y-89916000D01*
X155702000Y-122682000D01*
G36*
X140462000Y-97663000D02*
X140482000Y-97663000D01*
X140482000Y-97917000D01*
X140462000Y-97917000D01*
X140462000Y-97937000D01*
X140208000Y-97937000D01*
X140208000Y-97917000D01*
X140188000Y-97917000D01*
X140188000Y-97663000D01*
X140208000Y-97663000D01*
X140208000Y-97643000D01*
X140462000Y-97643000D01*
X140462000Y-97663000D01*
X140462000Y-97663000D01*
G37*
X140462000Y-97663000D02*
X140482000Y-97663000D01*
X140482000Y-97917000D01*
X140462000Y-97917000D01*
X140462000Y-97937000D01*
X140208000Y-97937000D01*
X140208000Y-97917000D01*
X140188000Y-97917000D01*
X140188000Y-97663000D01*
X140208000Y-97663000D01*
X140208000Y-97643000D01*
X140462000Y-97643000D01*
X140462000Y-97663000D01*
M02*
