G04 #@! TF.FileFunction,Legend,Bot*
%FSLAX46Y46*%
G04 Gerber Fmt 4.6, Leading zero omitted, Abs format (unit mm)*
G04 Created by KiCad (PCBNEW 4.0.2-stable) date 4/28/2016 10:57:31 AM*
%MOMM*%
G01*
G04 APERTURE LIST*
%ADD10C,0.150000*%
G04 APERTURE END LIST*
D10*
X128095429Y-120597381D02*
X127904952Y-120597381D01*
X127809714Y-120645000D01*
X127714476Y-120740238D01*
X127666857Y-120930714D01*
X127666857Y-121264048D01*
X127714476Y-121454524D01*
X127809714Y-121549762D01*
X127904952Y-121597381D01*
X128095429Y-121597381D01*
X128190667Y-121549762D01*
X128285905Y-121454524D01*
X128333524Y-121264048D01*
X128333524Y-120930714D01*
X128285905Y-120740238D01*
X128190667Y-120645000D01*
X128095429Y-120597381D01*
X127238286Y-121597381D02*
X127238286Y-120930714D01*
X127238286Y-121121190D02*
X127190667Y-121025952D01*
X127143048Y-120978333D01*
X127047810Y-120930714D01*
X126952571Y-120930714D01*
X126619238Y-121597381D02*
X126619238Y-120930714D01*
X126619238Y-120597381D02*
X126666857Y-120645000D01*
X126619238Y-120692619D01*
X126571619Y-120645000D01*
X126619238Y-120597381D01*
X126619238Y-120692619D01*
X125714476Y-120930714D02*
X125714476Y-121740238D01*
X125762095Y-121835476D01*
X125809714Y-121883095D01*
X125904953Y-121930714D01*
X126047810Y-121930714D01*
X126143048Y-121883095D01*
X125714476Y-121549762D02*
X125809714Y-121597381D01*
X126000191Y-121597381D01*
X126095429Y-121549762D01*
X126143048Y-121502143D01*
X126190667Y-121406905D01*
X126190667Y-121121190D01*
X126143048Y-121025952D01*
X126095429Y-120978333D01*
X126000191Y-120930714D01*
X125809714Y-120930714D01*
X125714476Y-120978333D01*
X125238286Y-121597381D02*
X125238286Y-120930714D01*
X125238286Y-120597381D02*
X125285905Y-120645000D01*
X125238286Y-120692619D01*
X125190667Y-120645000D01*
X125238286Y-120597381D01*
X125238286Y-120692619D01*
X124762096Y-120930714D02*
X124762096Y-121597381D01*
X124762096Y-121025952D02*
X124714477Y-120978333D01*
X124619239Y-120930714D01*
X124476381Y-120930714D01*
X124381143Y-120978333D01*
X124333524Y-121073571D01*
X124333524Y-121597381D01*
X123428762Y-121597381D02*
X123428762Y-121073571D01*
X123476381Y-120978333D01*
X123571619Y-120930714D01*
X123762096Y-120930714D01*
X123857334Y-120978333D01*
X123428762Y-121549762D02*
X123524000Y-121597381D01*
X123762096Y-121597381D01*
X123857334Y-121549762D01*
X123904953Y-121454524D01*
X123904953Y-121359286D01*
X123857334Y-121264048D01*
X123762096Y-121216429D01*
X123524000Y-121216429D01*
X123428762Y-121168810D01*
X122809715Y-121597381D02*
X122904953Y-121549762D01*
X122952572Y-121454524D01*
X122952572Y-120597381D01*
X121238285Y-121597381D02*
X121238285Y-120597381D01*
X121238285Y-121549762D02*
X121333523Y-121597381D01*
X121524000Y-121597381D01*
X121619238Y-121549762D01*
X121666857Y-121502143D01*
X121714476Y-121406905D01*
X121714476Y-121121190D01*
X121666857Y-121025952D01*
X121619238Y-120978333D01*
X121524000Y-120930714D01*
X121333523Y-120930714D01*
X121238285Y-120978333D01*
X120381142Y-121549762D02*
X120476380Y-121597381D01*
X120666857Y-121597381D01*
X120762095Y-121549762D01*
X120809714Y-121454524D01*
X120809714Y-121073571D01*
X120762095Y-120978333D01*
X120666857Y-120930714D01*
X120476380Y-120930714D01*
X120381142Y-120978333D01*
X120333523Y-121073571D01*
X120333523Y-121168810D01*
X120809714Y-121264048D01*
X119952571Y-121549762D02*
X119857333Y-121597381D01*
X119666857Y-121597381D01*
X119571618Y-121549762D01*
X119523999Y-121454524D01*
X119523999Y-121406905D01*
X119571618Y-121311667D01*
X119666857Y-121264048D01*
X119809714Y-121264048D01*
X119904952Y-121216429D01*
X119952571Y-121121190D01*
X119952571Y-121073571D01*
X119904952Y-120978333D01*
X119809714Y-120930714D01*
X119666857Y-120930714D01*
X119571618Y-120978333D01*
X119095428Y-121597381D02*
X119095428Y-120930714D01*
X119095428Y-120597381D02*
X119143047Y-120645000D01*
X119095428Y-120692619D01*
X119047809Y-120645000D01*
X119095428Y-120597381D01*
X119095428Y-120692619D01*
X118190666Y-120930714D02*
X118190666Y-121740238D01*
X118238285Y-121835476D01*
X118285904Y-121883095D01*
X118381143Y-121930714D01*
X118524000Y-121930714D01*
X118619238Y-121883095D01*
X118190666Y-121549762D02*
X118285904Y-121597381D01*
X118476381Y-121597381D01*
X118571619Y-121549762D01*
X118619238Y-121502143D01*
X118666857Y-121406905D01*
X118666857Y-121121190D01*
X118619238Y-121025952D01*
X118571619Y-120978333D01*
X118476381Y-120930714D01*
X118285904Y-120930714D01*
X118190666Y-120978333D01*
X117714476Y-120930714D02*
X117714476Y-121597381D01*
X117714476Y-121025952D02*
X117666857Y-120978333D01*
X117571619Y-120930714D01*
X117428761Y-120930714D01*
X117333523Y-120978333D01*
X117285904Y-121073571D01*
X117285904Y-121597381D01*
X128285905Y-123147381D02*
X128285905Y-122147381D01*
X128285905Y-122528333D02*
X128190667Y-122480714D01*
X128000190Y-122480714D01*
X127904952Y-122528333D01*
X127857333Y-122575952D01*
X127809714Y-122671190D01*
X127809714Y-122956905D01*
X127857333Y-123052143D01*
X127904952Y-123099762D01*
X128000190Y-123147381D01*
X128190667Y-123147381D01*
X128285905Y-123099762D01*
X127476381Y-122480714D02*
X127238286Y-123147381D01*
X127000190Y-122480714D02*
X127238286Y-123147381D01*
X127333524Y-123385476D01*
X127381143Y-123433095D01*
X127476381Y-123480714D01*
X125857333Y-123147381D02*
X125857333Y-122147381D01*
X125285904Y-123147381D01*
X125285904Y-122147381D01*
X124666857Y-123147381D02*
X124762095Y-123099762D01*
X124809714Y-123052143D01*
X124857333Y-122956905D01*
X124857333Y-122671190D01*
X124809714Y-122575952D01*
X124762095Y-122528333D01*
X124666857Y-122480714D01*
X124523999Y-122480714D01*
X124428761Y-122528333D01*
X124381142Y-122575952D01*
X124333523Y-122671190D01*
X124333523Y-122956905D01*
X124381142Y-123052143D01*
X124428761Y-123099762D01*
X124523999Y-123147381D01*
X124666857Y-123147381D01*
X123476380Y-123147381D02*
X123476380Y-122623571D01*
X123523999Y-122528333D01*
X123619237Y-122480714D01*
X123809714Y-122480714D01*
X123904952Y-122528333D01*
X123476380Y-123099762D02*
X123571618Y-123147381D01*
X123809714Y-123147381D01*
X123904952Y-123099762D01*
X123952571Y-123004524D01*
X123952571Y-122909286D01*
X123904952Y-122814048D01*
X123809714Y-122766429D01*
X123571618Y-122766429D01*
X123476380Y-122718810D01*
X123000190Y-123147381D02*
X123000190Y-122147381D01*
X122571618Y-123147381D02*
X122571618Y-122623571D01*
X122619237Y-122528333D01*
X122714475Y-122480714D01*
X122857333Y-122480714D01*
X122952571Y-122528333D01*
X123000190Y-122575952D01*
X121333523Y-123147381D02*
X121333523Y-122147381D01*
X120952570Y-122147381D01*
X120857332Y-122195000D01*
X120809713Y-122242619D01*
X120762094Y-122337857D01*
X120762094Y-122480714D01*
X120809713Y-122575952D01*
X120857332Y-122623571D01*
X120952570Y-122671190D01*
X121333523Y-122671190D01*
X120333523Y-123052143D02*
X120285904Y-123099762D01*
X120333523Y-123147381D01*
X120381142Y-123099762D01*
X120333523Y-123052143D01*
X120333523Y-123147381D01*
X140762191Y-90704714D02*
X140762191Y-91514238D01*
X140809810Y-91609476D01*
X140857429Y-91657095D01*
X140952668Y-91704714D01*
X141095525Y-91704714D01*
X141190763Y-91657095D01*
X140762191Y-91323762D02*
X140857429Y-91371381D01*
X141047906Y-91371381D01*
X141143144Y-91323762D01*
X141190763Y-91276143D01*
X141238382Y-91180905D01*
X141238382Y-90895190D01*
X141190763Y-90799952D01*
X141143144Y-90752333D01*
X141047906Y-90704714D01*
X140857429Y-90704714D01*
X140762191Y-90752333D01*
X140286001Y-91371381D02*
X140286001Y-90704714D01*
X140286001Y-90371381D02*
X140333620Y-90419000D01*
X140286001Y-90466619D01*
X140238382Y-90419000D01*
X140286001Y-90371381D01*
X140286001Y-90466619D01*
X139952668Y-90704714D02*
X139571716Y-90704714D01*
X139809811Y-90371381D02*
X139809811Y-91228524D01*
X139762192Y-91323762D01*
X139666954Y-91371381D01*
X139571716Y-91371381D01*
X139238382Y-91371381D02*
X139238382Y-90371381D01*
X138809810Y-91371381D02*
X138809810Y-90847571D01*
X138857429Y-90752333D01*
X138952667Y-90704714D01*
X139095525Y-90704714D01*
X139190763Y-90752333D01*
X139238382Y-90799952D01*
X137905048Y-90704714D02*
X137905048Y-91371381D01*
X138333620Y-90704714D02*
X138333620Y-91228524D01*
X138286001Y-91323762D01*
X138190763Y-91371381D01*
X138047905Y-91371381D01*
X137952667Y-91323762D01*
X137905048Y-91276143D01*
X137428858Y-91371381D02*
X137428858Y-90371381D01*
X137428858Y-90752333D02*
X137333620Y-90704714D01*
X137143143Y-90704714D01*
X137047905Y-90752333D01*
X137000286Y-90799952D01*
X136952667Y-90895190D01*
X136952667Y-91180905D01*
X137000286Y-91276143D01*
X137047905Y-91323762D01*
X137143143Y-91371381D01*
X137333620Y-91371381D01*
X137428858Y-91323762D01*
X136524096Y-91276143D02*
X136476477Y-91323762D01*
X136524096Y-91371381D01*
X136571715Y-91323762D01*
X136524096Y-91276143D01*
X136524096Y-91371381D01*
X135619334Y-91323762D02*
X135714572Y-91371381D01*
X135905049Y-91371381D01*
X136000287Y-91323762D01*
X136047906Y-91276143D01*
X136095525Y-91180905D01*
X136095525Y-90895190D01*
X136047906Y-90799952D01*
X136000287Y-90752333D01*
X135905049Y-90704714D01*
X135714572Y-90704714D01*
X135619334Y-90752333D01*
X135047906Y-91371381D02*
X135143144Y-91323762D01*
X135190763Y-91276143D01*
X135238382Y-91180905D01*
X135238382Y-90895190D01*
X135190763Y-90799952D01*
X135143144Y-90752333D01*
X135047906Y-90704714D01*
X134905048Y-90704714D01*
X134809810Y-90752333D01*
X134762191Y-90799952D01*
X134714572Y-90895190D01*
X134714572Y-91180905D01*
X134762191Y-91276143D01*
X134809810Y-91323762D01*
X134905048Y-91371381D01*
X135047906Y-91371381D01*
X134286001Y-91371381D02*
X134286001Y-90704714D01*
X134286001Y-90799952D02*
X134238382Y-90752333D01*
X134143144Y-90704714D01*
X134000286Y-90704714D01*
X133905048Y-90752333D01*
X133857429Y-90847571D01*
X133857429Y-91371381D01*
X133857429Y-90847571D02*
X133809810Y-90752333D01*
X133714572Y-90704714D01*
X133571715Y-90704714D01*
X133476477Y-90752333D01*
X133428858Y-90847571D01*
X133428858Y-91371381D01*
X132238382Y-90323762D02*
X133095525Y-91609476D01*
X131905049Y-91371381D02*
X131905049Y-90371381D01*
X131809811Y-90990429D02*
X131524096Y-91371381D01*
X131524096Y-90704714D02*
X131905049Y-91085667D01*
X130714572Y-91323762D02*
X130809810Y-91371381D01*
X131000287Y-91371381D01*
X131095525Y-91323762D01*
X131143144Y-91228524D01*
X131143144Y-90847571D01*
X131095525Y-90752333D01*
X131000287Y-90704714D01*
X130809810Y-90704714D01*
X130714572Y-90752333D01*
X130666953Y-90847571D01*
X130666953Y-90942810D01*
X131143144Y-91038048D01*
X130286001Y-91323762D02*
X130190763Y-91371381D01*
X130000287Y-91371381D01*
X129905048Y-91323762D01*
X129857429Y-91228524D01*
X129857429Y-91180905D01*
X129905048Y-91085667D01*
X130000287Y-91038048D01*
X130143144Y-91038048D01*
X130238382Y-90990429D01*
X130286001Y-90895190D01*
X130286001Y-90847571D01*
X130238382Y-90752333D01*
X130143144Y-90704714D01*
X130000287Y-90704714D01*
X129905048Y-90752333D01*
X129524096Y-90704714D02*
X129286001Y-91371381D01*
X129047905Y-90704714D02*
X129286001Y-91371381D01*
X129381239Y-91609476D01*
X129428858Y-91657095D01*
X129524096Y-91704714D01*
X128524096Y-91371381D02*
X128619334Y-91323762D01*
X128666953Y-91276143D01*
X128714572Y-91180905D01*
X128714572Y-90895190D01*
X128666953Y-90799952D01*
X128619334Y-90752333D01*
X128524096Y-90704714D01*
X128381238Y-90704714D01*
X128286000Y-90752333D01*
X128238381Y-90799952D01*
X128190762Y-90895190D01*
X128190762Y-91180905D01*
X128238381Y-91276143D01*
X128286000Y-91323762D01*
X128381238Y-91371381D01*
X128524096Y-91371381D01*
X127333619Y-90704714D02*
X127333619Y-91514238D01*
X127381238Y-91609476D01*
X127428857Y-91657095D01*
X127524096Y-91704714D01*
X127666953Y-91704714D01*
X127762191Y-91657095D01*
X127333619Y-91323762D02*
X127428857Y-91371381D01*
X127619334Y-91371381D01*
X127714572Y-91323762D01*
X127762191Y-91276143D01*
X127809810Y-91180905D01*
X127809810Y-90895190D01*
X127762191Y-90799952D01*
X127714572Y-90752333D01*
X127619334Y-90704714D01*
X127428857Y-90704714D01*
X127333619Y-90752333D01*
X126143143Y-90323762D02*
X127000286Y-91609476D01*
X125381238Y-91371381D02*
X125381238Y-90847571D01*
X125428857Y-90752333D01*
X125524095Y-90704714D01*
X125714572Y-90704714D01*
X125809810Y-90752333D01*
X125381238Y-91323762D02*
X125476476Y-91371381D01*
X125714572Y-91371381D01*
X125809810Y-91323762D01*
X125857429Y-91228524D01*
X125857429Y-91133286D01*
X125809810Y-91038048D01*
X125714572Y-90990429D01*
X125476476Y-90990429D01*
X125381238Y-90942810D01*
X124905048Y-91371381D02*
X124905048Y-90704714D01*
X124905048Y-90895190D02*
X124857429Y-90799952D01*
X124809810Y-90752333D01*
X124714572Y-90704714D01*
X124619333Y-90704714D01*
X124286000Y-91371381D02*
X124286000Y-90704714D01*
X124286000Y-90799952D02*
X124238381Y-90752333D01*
X124143143Y-90704714D01*
X124000285Y-90704714D01*
X123905047Y-90752333D01*
X123857428Y-90847571D01*
X123857428Y-91371381D01*
X123857428Y-90847571D02*
X123809809Y-90752333D01*
X123714571Y-90704714D01*
X123571714Y-90704714D01*
X123476476Y-90752333D01*
X123428857Y-90847571D01*
X123428857Y-91371381D01*
X123190762Y-91466619D02*
X122428857Y-91466619D01*
X122238381Y-90466619D02*
X122190762Y-90419000D01*
X122095524Y-90371381D01*
X121857428Y-90371381D01*
X121762190Y-90419000D01*
X121714571Y-90466619D01*
X121666952Y-90561857D01*
X121666952Y-90657095D01*
X121714571Y-90799952D01*
X122286000Y-91371381D01*
X121666952Y-91371381D01*
X121047905Y-90371381D02*
X120952666Y-90371381D01*
X120857428Y-90419000D01*
X120809809Y-90466619D01*
X120762190Y-90561857D01*
X120714571Y-90752333D01*
X120714571Y-90990429D01*
X120762190Y-91180905D01*
X120809809Y-91276143D01*
X120857428Y-91323762D01*
X120952666Y-91371381D01*
X121047905Y-91371381D01*
X121143143Y-91323762D01*
X121190762Y-91276143D01*
X121238381Y-91180905D01*
X121286000Y-90990429D01*
X121286000Y-90752333D01*
X121238381Y-90561857D01*
X121190762Y-90466619D01*
X121143143Y-90419000D01*
X121047905Y-90371381D01*
X120428857Y-90704714D02*
X120047905Y-90704714D01*
X120286000Y-90371381D02*
X120286000Y-91228524D01*
X120238381Y-91323762D01*
X120143143Y-91371381D01*
X120047905Y-91371381D01*
X119571714Y-91371381D02*
X119666952Y-91323762D01*
X119714571Y-91276143D01*
X119762190Y-91180905D01*
X119762190Y-90895190D01*
X119714571Y-90799952D01*
X119666952Y-90752333D01*
X119571714Y-90704714D01*
X119428856Y-90704714D01*
X119333618Y-90752333D01*
X119285999Y-90799952D01*
X119238380Y-90895190D01*
X119238380Y-91180905D01*
X119285999Y-91276143D01*
X119333618Y-91323762D01*
X119428856Y-91371381D01*
X119571714Y-91371381D01*
X118285999Y-91371381D02*
X118857428Y-91371381D01*
X118571714Y-91371381D02*
X118571714Y-90371381D01*
X118666952Y-90514238D01*
X118762190Y-90609476D01*
X118857428Y-90657095D01*
X117666952Y-90371381D02*
X117571713Y-90371381D01*
X117476475Y-90419000D01*
X117428856Y-90466619D01*
X117381237Y-90561857D01*
X117333618Y-90752333D01*
X117333618Y-90990429D01*
X117381237Y-91180905D01*
X117428856Y-91276143D01*
X117476475Y-91323762D01*
X117571713Y-91371381D01*
X117666952Y-91371381D01*
X117762190Y-91323762D01*
X117809809Y-91276143D01*
X117857428Y-91180905D01*
X117905047Y-90990429D01*
X117905047Y-90752333D01*
X117857428Y-90561857D01*
X117809809Y-90466619D01*
X117762190Y-90419000D01*
X117666952Y-90371381D01*
X130714571Y-92254714D02*
X130476476Y-92921381D01*
X130238380Y-92254714D01*
X129905047Y-92016619D02*
X129857428Y-91969000D01*
X129762190Y-91921381D01*
X129524094Y-91921381D01*
X129428856Y-91969000D01*
X129381237Y-92016619D01*
X129333618Y-92111857D01*
X129333618Y-92207095D01*
X129381237Y-92349952D01*
X129952666Y-92921381D01*
X129333618Y-92921381D01*
X128905047Y-92826143D02*
X128857428Y-92873762D01*
X128905047Y-92921381D01*
X128952666Y-92873762D01*
X128905047Y-92826143D01*
X128905047Y-92921381D01*
X128476476Y-92016619D02*
X128428857Y-91969000D01*
X128333619Y-91921381D01*
X128095523Y-91921381D01*
X128000285Y-91969000D01*
X127952666Y-92016619D01*
X127905047Y-92111857D01*
X127905047Y-92207095D01*
X127952666Y-92349952D01*
X128524095Y-92921381D01*
X127905047Y-92921381D01*
M02*
